<mxfile host="app.diagrams.net" modified="2023-06-02T09:08:35.956Z" agent="Mozilla/5.0 (Windows NT 10.0; Win64; x64) AppleWebKit/537.36 (KHTML, like Gecko) Chrome/113.0.0.0 Safari/537.36 Edg/113.0.1774.57" etag="0AhmxXF3NH0h-vAv6rjk" version="21.3.5" type="github">
  <diagram id="wFE0QG_FPsp0jaGvCLVb" name="Page-1">
    <mxGraphModel dx="996" dy="587" grid="1" gridSize="10" guides="1" tooltips="1" connect="1" arrows="1" fold="1" page="1" pageScale="1" pageWidth="850" pageHeight="1100" math="0" shadow="0">
      <root>
        <mxCell id="0" />
        <mxCell id="1" parent="0" />
        <mxCell id="FzvfpjTC2ta0bPmBSBWZ-26" value="" style="rounded=0;whiteSpace=wrap;html=1;fillColor=#dae8fc;strokeColor=#6c8ebf;" vertex="1" parent="1">
          <mxGeometry x="465" y="40" width="265" height="400" as="geometry" />
        </mxCell>
        <mxCell id="FzvfpjTC2ta0bPmBSBWZ-2" value="Retailer" style="shape=image;verticalLabelPosition=bottom;labelBackgroundColor=default;verticalAlign=top;aspect=fixed;imageAspect=0;image=data:image/jpeg,/9j/4AAQSkZJRgABAQAAAQABAAD/2wBDAAsJCQcJCQcJCQkJCwkJCQkJCQsJCwsMCwsLDA0QDBEODQ4MEhkSJRodJR0ZHxwpKRYlNzU2GioyPi0pMBk7IRP/2wBDAQcICAsJCxULCxUsHRkdLCwsLCwsLCwsLCwsLCwsLCwsLCwsLCwsLCwsLCwsLCwsLCwsLCwsLCwsLCwsLCwsLCz/wAARCAEEAQQDASIAAhEBAxEB/8QAGwABAAMBAQEBAAAAAAAAAAAAAAEEBQYDAgf/xABPEAABAwMABwQGAg8GBQMFAAABAAIDBAURBhIhMVFx8BNBYbEUIjKBkaFCshUjNTZSYnJzdZKiwcLR4QckM0N0glNjg5PDFiU0RFRko9L/xAAbAQEAAgMBAQAAAAAAAAAAAAAAAQQCAwUGB//EADsRAAIBAgMEBQsDAgcAAAAAAAABAgMRBCExBRJBsRMyUXGBFCIzNGFykaHB0eFCUvBDkiRTgqLS4vH/2gAMAwEAAhEDEQA/AP1pERASoREAUqOuSdc0AROuSIAiIgJUEgAkkAAEkk4AA3nJTrmvzHSO9VmkFfU2egmdFaKN+pWzRnbVSNcQRkbC3IIaNxwXHOwCUla7dkjOEJVJKEFds6a46c6L0DnxMqH1swJbqUDRI3W/OuIj+BKwZtOdJarIttkihjOwSVrnvPMAmNvms6moaKkAEELGkDa8jWkd4l52qyqksbGOUI/E9DR2C2r1p+C+/wCDwkuv9oNTntLtBTsP0aeOJpHItjz+0qskOks4xUaQ1rxw1piPh2gHyWii1PHVeFl4HQjsXCLVN97f0sZTbfd2HWZe6truI7UH5SqyyXTSDBh0iqHEbhOXvHwk1wriKPLq3F/JEvY2Ef6beL+4i0l/tApTmQUFcwfhxsa73dkYz8itKm/tDhjc1l3tNXSHcZID2sZPHVkDT8CVmqCGuBaQC07w4Ag8wdi2Rx374rwyKtXYVN+jm135/Y7+23qzXdhfb6yKfVAL4xlszBuy+J4DwPHC0F+PzW50UjK21vdR18BL4nQHUa4/g43bd3A7iOH6BorfxfreXzNayvpHiCuiaMDXx6srQduq7byII7ttuEoVI70Dz+KwlXCT3anHR8DoEROCkqBE65ogJUJ1zRAEREBKhEQEoiIAoREBPFQiIB1zROuSIAp4qEQBF5S1EceR7TvwR+8qm+aWTIJwPwW7AOaA8r/cmW+z3iqY/wC2w0kgiLT7M0mIo9vMj4L83s0Agt9Ps9aYGd5O86/s/LC3tOqhwtdvoIziS5XBjcDeY4R3/wC5zfgqDWtY1rG+yxrWt8A0YCr4yW7SUe18j0GwqW9WnUfBW+P/AISiIuUetCIiAIiIAiIgC+dHqkW3S4MJIgu9HIxwG4zMBlaccctf+svpZd1kdRz2W5sG2hrYnOP4msHkfAOHvV3BStV3e3I4+2aXSYVv9rT+jP2Fr2PGWuBHh3cwp65rKa7GHMJwcFrh3g7QVZjqnA4kGfxhvHMLo2PFF1Qoa5rgC0gg8P3qVAJRQiAJwROuaAIiICUREBCdclKjrmgGzrvTrkpUICVCKHvZG0uccDuHE8AgDi1oJJAA47gqctS52Wx5a3vduc5ecsr5Tt2NB9VoXn1yUgdck8vNNnu8151FRR0bRJXVNPTRn6VTKyPI79Vrjk+4IDidJZfS9J7dSg5jtdC2V47hLLmU/WZ8FKwXXmlfdb9cXtllkralxp2RgbIQ46uS7buDe7uX0663WXPo9AyIH6U7iSPiWj5Kvi6FSc1wSXF2PTbIxFGjQsruTbdkm/Zw7jcU6rjuaTyBXPOkv8vt1rIh+DC0NI97QPNeZo5pDmauqpObz+8lU+hprrVF4XZ2Fia0upRfi0vq2dG4tb7Tmt/KcB5lfHb0w3zwDnNGPMrnvsZR9/auP4z/AOQUi3UH/Dd73uTcoL9T+H5J3sY9KcV/q/6nQdvSn/6in/70X/8ASkSQndLEfyZGHyK5/wCx9B/wj+u/+ag22hP0Hjk8/vTcofufw/JN8av0R/uf/E6UBx3DPLb5KDs8FzX2Ohb/AIctQz8l4/kvsRXOP/BuU4H4Mhc4fMkfJOipPSp8U/yR02Jj1qPwafOx0SpXSET2+sjxkiPtWjxjOt5ZWc2r0gixn0aob4tDXH3jVK9W3rV9WtoJo2kFr3RHWbqnYdjsfWWcKE4yUoNO3YzTWxdKdOVOqnG6azT55o7zRurNbY7PO45kbTNp5T/zKcmBxP6ufetbrmuG0HudBDS11vnq4Ii2tM1GKiRsXaslYA4NLzjII2jP0l3JBGM94yD3EfincurUjuyZ4WOh9Me+M6zTg9/A+5XYp2SYBGq/8E9/iFQ6A/mnI+/+S1kmqpVWCo1sMk9r6Lu48/FWeuagBOuSIgCInQQEoiICE65KVCAIpUE4BJ2ADO3cB4oCHvaxpc7YB1gLOlldK4k7tzRwC+p5TK7Z7DfZ8fFeXXJSB5+SbPd5p3eHmnXJAcxpVfqu2ilt1uIbca1hkfMcE01PktGpnYHOwdvcBxOzivQWSPM1XLLUzu2vfK9xLieJJ1viVu6Ywvpr3b7hIP7tV0baUPPsslhyC0nkQfeeCzcE4xtzuI255Kviqs6SUYZJo9JsXB4evGVSqt6Sej4Lu9p8sjijGI2NYPxAB5L6XnJPTwjMsrGeBOXfAbV4x1jql2rQUdZWO/8Ax4nObnxLQQqCpVannW8X92eiqYvDYZbspJez8L7FpF7R2bTGpxqW+npWnvq54w4Dxa0ud+yrkeiN/k/+ReKaIE7qaGWQ/ElgWEuih16kV435JlGW2qC6kW/C3NrkZ2D3Apg8Cthug8Z/x71XP49nHGwftOcvUaDWfZrV10cfzkA/8S1OvhF/U+T/AAaHtt8KXzX2MLBTDuB+C3v/AENZMbKu6A8e1gP/AIl8O0Gt/wDl3O5sPj2DgPg0J5RhP8x/2shbblxpf7vwYe5FrP0LrWZ9HvsngJ6cnPvZJ+5VJNGdLoc9nNb6oDu1zG7H/UYB+0s4yoT6tVeN1zRtjtun+uEl8H9Soi+JodIaPJrLNVBo3yQNMrOeYtcfNV47jQyEt7QseN7ZBgg+OFu8nqNb0c17HfkXKW1MLUyU0n7cuZ6SUtJLnXiZk7y0ap+IXrRXC6WB7Z6OaSaia5pqKKZ5dG9h2HVzsB4EYx4jYpaQ4AtcHA97SHD5KvXSthppQQS+UdnGwDLnucceq3fy8Vuw1aqpqGq7DTtDBYapQlVkkmk3c/Vaaogq6enqoHa0FTDHNG47CWPaHDI816rOslHPQWi0UU/+NT0kTJRvDJDl7m+4nHuWj1zXRas7I8IOuat08+tiN59b6JPf4c1U9/8AROgoBqovCCbtGkOPrt3+I4he/D5KAEROuSAlERAQiIgJVOql/wApp2bC88fxVYleI2Oce7YPFx3LNJJJJOSTkkoB1yTu8PNOHDzTrkpA65Jw+X9U6ATooCtW0VFcaaakrImywSYLmuJBDm7Q5jhtDh3Efv28HpBotHZrZW3CkuNa6OJ8TW00wYQBI7VzrswdnJfovu5BZOklP6TYL7ENpFJ248TA9sx+QK2QlZpcBdxu4uzM62aM6NwQUtR6G2olkhhlMtaTO4l7A71Wv9Qb/wAFbzQ1jQxgDWgYDWANa0DgBsWbYJ/SbJZZc5PoUMbvB8I7F3ktPrmvBYypVlVlGrJuza+Z0aaSSaQ65px+acfmeCdAKoZjoJ0f6J0f5J5+SAefknXiU8vNPPyQDrknknDrKcfmhIyeOOJ/kqtXbrXXjFbRU0/cDLG0vHJ49cfFWuGzkE6JWUJyg7xdmQ0nkzgLvo9b6a86P2+3SVFMLs6UTESOl7ENJGtGHnPcdhcV0tp0StNsqGVkkk9dWxnWhlqy3Uhd+FHE3ZrcCScd2FUnBqtObTGBltstMk7+DXPa8jP/AHGrrfLzXvcJUqPD03N3bWvH+WObPrNLQdc065Jx6wnXNbTEdc04/P8AonRKdBAS1xY5rm7wcgd3vWkx7XtDhuI+fBZnXNWKWQtfqHc/dwBQF5QnXNFAJREQBR1zUr5e4Ma5x+iCUBTqnlz9QHYwbeZVfZ7vNCckk5ySSfElOuSkDrknQ/mnQ/qnRKAdFOh4J0Anl3+KAbOu9QWMka+OQAxysfFICMjs5GljvkSp65J1zQHI6IOfTwXezzH7darjNHqnf2cjjg8sh3xXTdFc1cv/AGfSm33InVo75EKGrd9FlS3Va1zv2D73LpfD5Lye2KPR4h1FpLPx4l2hK8bdg6ATrmnRTrkuObxt9/knl5p1zTrkgHn5J1zROiUA6JT3ck6AT38z+5AOiVLW6xAzjJA8GjvJUdDwWPpLcfsZZq6VpPb1I9BpQPbdLMCHFvfsbnHjhbaNKVapGnHVuxjKW6m2UdFz9kLrpXfcHs6iqbQ0pPfFF65x7uzHuXXefksyw237E2m30RAE0cXaVJH/ANxKe0k+BOByWn1zX0BpRtGOiy+BzF2sJ1/ROj/ROgoJHQ8Oadc06Pinn5IB5+SbtxPhjvKdc065IDSif2jGu78Yd4Eb19qnSPw5zD3jWaPEK4oBKIiAhVqt2GBn4TsnxAVlUap2ZcfgNA+O1AeHXJOgidEqQOiU6wnD5DgnHrKAceHeeKdck65J1zQDrmnR8E96cPkgMy+2pt5tlVQ7BMQJqN2catTHnV28HbWn8rwVLR25uudvb22RXUbvRK9rhhwlZ6oeR+MBt8QR3LoOua5K9wzWO5s0kpI3PpKgtgvlPHvw4gCcDdkn9of8zZUxuF8qo7i6yzX28eZnTnuSvwOl65J5ea84ZoaiGGeCRskEzGyRSM2iRrhkEdeS9OuS8M007M6KzHn5J1zTrmnRKAdEqOgFPD5D+acfmUA4/MqOuSnh1hOuaAAEkADOSAB3knYuVjxpJpM17cPtGjZ9V2+Oor3HII7jtGeTG/hK3pHdKiBkFntn2y83UdjE1hx6PA8EOlc4bsjOD3AE9wzr2e109nt9NQQnW7PL5pMYM87sa8hHjuHAADuXp9j4TcXlM9XlH6v6Ip153e4jQ65ninRKdf0Th8v6rulcdAcE4/PxTjt/qnXJAOuSdc065ogHXJR0Ap6ATolAfTHaj2OzuIJ5d60+gspaULtaKMnht5jYgPRERQCFmynWlkPF5x7tm1aSyjtLjneSSeKAcdvM/uToBPdyCdHxUgdeJTrknXJOuaAdc04/NOsp0AgHQTop1/RNvv8AJAPPyXy9kcrJIpWNkika6ORjxrNkY4Yc1w4FfXl5p5+SA4v+8aH1Rjf2s+jVZMTFLgvkt07z7DgO4/Pf7QId1THxSsjlieySKVofFJG4OZI07nNI7l4XwxNsl9dK5jYzb6lgMhaGmRzCI2jW7ycaviuGscmkFsoKavoAK6gmMzqu3nOvE5kjmF8B35IAJwObTvHH2ngYVV0yajJu2ejffwfM30ajT3dUfoXHbz8E4fILKtukFlumGw1DYqjc6lqiIpmu7wNb1T7j7gtYtLd4I45BC8vUpTpS3Kisy4pKWaZHH5lE65L5mkhp4zNUyxwQjaZKh7Y2fF5CwSbdkSfXXNZN6vlPZ4442M9KutVhlDRRgve97tjXyNbt1eA3nwAJGbVaUTVcj6PRqnNVUD1ZK6ZhZSU3dlokG0juyOTSqOjtNJTaW1sVXUtqqz7Gve6eTa99RL2EjwzXJdkAkccD3Du4DZilU/xGVlfd4+PYvmVqtV7t4fE3tH7JUUJqLndJBUXuvy6pkJDhAx2D2MZGzhrEcABsaF0HRT3+9OgOC9O3cqDh5J1zTrmnXJQB1yTrmnXNOuSAdck4fIJ0E4/NAOPzP8k4J1hOuaAdc1epD9rI4OPuB2qj1yVujOyUeLTz3hAW0RFAIO48isroLVO48isro+KAdc065J1yTrmpA65p0U6KdBAOgE6PinRTaTjG3uHBAOuSbPd5o/EbS+Utjj3l0zmxt+MhAWVU6RaM0me2u1IXDeymLqlw/wCwCPmpSb0DdjV65KhdbvbbNSmqrpdUEO7CBhHb1Dm79QHYAO9x2D5HnazT21tZI22UlVVTkhkDqljIqcyOOG6zQ4vPLIzxC0bJolUy1QvelEgrLo9zZIqZxD6ekI2t1gPULh3ADVb3ZPrLZubuc8jG99ChQ2e96YT09yvwkorLE4SUNujLo3zs3hzs4cGnvcfWd3ao31WwP0Yv09pkJ+xlzf6RbJHnIY9x1QwuPf8AQP8AtP0l+m9D+qwtKLG2+2yWBgAracmooH51SJgMdmXcHbj44P0VXrwjiabo1Oq/l2MzhJ05KUdTn66z2i4kuqqZplP+dGTHNn8tu/35VFlku1J6tt0iuMEY9mKb7axo8AHAfsqxYrk+4UZbNkV1I70esY4artduwPLTxwc+IK1eua8HLE4vBSeHlLq8HZrwvc7PR0qyU7amJ6DphJlsmlEwbuzDT6rjyIcPNfDNGKF8gmuNVW3GYbSauZ3Z8fZac/tLe65IAXEAd+wDjzWD2pibWjJR7kl80rkrDU1na/eUK6rorHbZqhsUMccI1KWBjAxj5iCWjVb3D2neA8V4WnQk11oNdcKipp77XTfZGGpa5wkpNb1o2PYCNp9p+0EE4BGqvC30w0s0hD3DWsVhc1xz7FVU51mjB3hxGsfxWtH01+l9f1XsNl4R4Sjvz9JLN+xcF9X7Tl4moqs7LRHC0V8r7dVss+k7GwVZGKS4DHola0HAc9+AAfHA8Q0nLum6PirFytluu1LLSV8LZYX7R3PjfjAfE4bQRxHzBweHmqbvoVJDSVxdc7LMXMt0oextZAWjPYlrt+B3buBb7K66SnpqVr21Ow8/JOua52m0z0VqCGvqZ6V+cFtZTvaAeGtFrhbVNW2+sGaOspKj8xPG936gOt8lg4SWqJTTLHXJOghDm7HNI4AgjPjtTolYkjooidc0A65p1yTrknl5oB1zVqj3y8m+ZVXo+CtUe+Xk3zKAuIiKAQssjBI7wSOS1FmzDVllHdrEjxztQHx1zTrknFOh/VSB0AqdxudrtUQmuFUyBrmkxs2unlA/4UTfWI8dg8VkX/SQ26RtstkQqr1PhoYGh7KXIzl7c4L8bcE4A2ngcajsDXyur71Ka+4SkPf2ri+CN3DDvax3ZGOAC2qCSvIxvwRZfphdq8kWCyvfFkgVVccs5hoc2L9typVk2n8lLV1NVdoqaKCGSZ0NCRG5waM6oMDG/XK6HAAAGABsAGwADuACqXX7l3j/AENR9VSpq6SRDjkcnTWttwhp6utq6ud8zdch8mtjaRjWfrOWhFarVDjVpYyR3y5kP7ZKi1fc6g/NfxOV5cjEYiq5yjvO12e7wOCw8aMJqCu0uRTuFGyqoainawAhvaRBoDRrsBIAA47R713mid1N3sdDO92tUwN9Dq+PbwgN1z+UMO964/x4bQvTRSr+xWkdXbXHFJeo+2px3NqYw5+BzGsP9oW7Bz3oypvvX1ObtzDJbtaK9j+h+ldFOuSjh8vBOuatHmT890pon2G7QaR0rHGirninu0bP+I7b2gA/Cxn8pv8AzFpMeyRrJI3BzHta9jmnLXMcMgg+K6iuo6a4UlXRVTNeCpidFKBsIB3Fp4jYQeIX51Z3VNrra3Rqvdmajc6Shk24mp3euA33esPePoLg7bwXT0vKILzo6+1fjkXcHV3ZdG9HzN/oLE0hrqmKGntdCC+6XdwpoWNPrNiedQnPdrbRnuAce5a808FNBUVM7tWCnjMkrhvwNga3xJwBzVXQu3T3Gqq9LLgz7ZUGSC0xn2Yaceo6RvgcajPAE/TXI2JgViKvTVF5sfm+C+rLOLrbkdxas6mw2ensdspLfDhzowZKiXGDPUPwZJTzO7gAB3LU6Pio6PjyU9cl7ZtvNnJSsPPyX5hpBV/ZfScwtOtR2FhiHe11W45ecccjH/TXe3u5stFquNwONaCE9i13053nUjb8SMr8ztED4qQSykmercaqdzvaJftGfdtPMrCrPo6TlxeS+vyOjszD+UYhJ6Rzf0+Zckgp5hiWKKT84xrvmRlUZLJapDrNidE7uML3Nx7jkfJaSLkwq1IdVtHtKuGo1fSQT8DMo36QwXKS3W291cQZSekt9Ke6WMjLQWFjst79+qttt406o8ek0FvuUYG11KeylxxwzV2/9MrLoPvmm/RR+tGunXdjUvCLkr3SPA4qnGFecIZJNnxb9LrJWSej1PbW6r2Aw141WF27AlwB+sGroduzkCOGD3hcxWUFDXx9nVwMkGDquOySP8h49YfFZcFVd9FXNDnS3CwawBY4j0ijycZYdwH7J/FJyZ3Yy6uTK12tTu+uadcl40tTS1tPDVUsrZaeZuvHI3OCNxBB2gjcQdy9uHy/qtdrGQ4fIfvVujGyU8XNGeQVTjt5/wBFepRiIHi5xHkoBYREUAhUqtuJA78Ju3mNiurwqmZj1gNrDn3HYUBR6/qsXSO9/YSgEkI1rhVuNPb2ause02B0ur3huRjiSAtsAuIaN7iBzJ2YXBdoL7pPcK4+tRWYikoAfZMjS5ofw/Cf/uHBbYJXu9EYt9h72W0+gRvqKkmS5VeX1cr3a7mlx1jGHHx2uPeflronXJYyk5O7JSsOuSp3X7lXj/Q1H1Vc65qndPuXeP8AQ1Gf1Uj1kHoYVq+51B+a/icrypWr7nUH5r+Jyuri1/Sy72fRMH6vT91cgs67MnbDBXUx1aq2zx1ULuGq4O+AIB+K0VBDXAteMtcCx44tcMELGlUdOamuBliaCxFKVJ8UfodtrobnQUNfDsjq4GTBve1xHrMPiDkHkrnXJcFoDWup5Lvo9O71qWR1bRZ+lBIQJA3PAlrv95Xe9BduSSeWh87acW4y1QXJaaWeerpoLvQBwudn+3MLB60tO0672YG8t2uA/KH0l1hOASTu2k7gAuEvellZXzy2fRch8g9WruQP2mBh2HsX7R4a23P0QfabMIuT9nExZh9tLphWWiz0gkio9RlfeXtyOzA2OY137LPF2fobP1SGKGnihghY2OGGNkUTGDDWMYA1rWjgBsX5ZT0V80XeLhZ5zVs7ONtxppWYE7W5JLWt24GSRg5H4wJC7+x6QWu/0/bUj9WZjW+kU0hHbQE8QNhae5w2ciMDCGHp4emqdFeaubJdSU5b09TY8/JR1zU9c15VE8NNBUVM7g2Gnikmmd+DHG0vcfkgOB05q/TrjaLBG7McR+yFw1d24hjD7s/rhVByxwWdQSzXCqul6qAe1uNQ8xg59SFpwGjPcNjf9q0VQxs7zVNcOfE9lsXD9FQ6R6yz8OH3CIionaKdB98s36KP1o10/XJcxQffNN+ij9aNdP1zXdj1I9yPnuN9Zqe8woIa4Oa4AtcC17XAFpaRggg7MHvUopKphUk7tFrmxhc77AXSUNIcSRRVOwB+eA7+LfFi7vj8z/JcvcKKO40dTRyY+3M+1l30ZRtY747D4E8V76I3CSttLIagn0u2SGgnDvaLWDMbnZ78eqfyVtl58d7ijFZOx0PQC0426kcbeDRnnvWfE3Xkjb3ZyfEDatJaTIlERAQocA5rmncQQfevpR1yQGFcp3UFBdqrc+ko6qVng9rCGH4kLj9GIBDZ6V59qpfLUvPedZ2o35ALqtMWluj99kbudSxsdzM8QWDaABarQBuFDTe7LAVtXo/Ex4l7rkidc06JWsyCp3X7l3j/AENRj9VXOgqd1+5d4/0NR9VZR6yIehhWr7nUH5r+JyvKlavudQfmv4nK6uLX9LLvZ9Ewfq9P3VyCIi0looVFS+0XOz3yMHUpphBWgfSp3gtdn/aXY8QF+qzVdFT0slbNURR0jIxM+d7sMEZAIIPjkY458V+Z1MDamnqKd2MSsLQTuDhtafjhULfHXXt0Ftu1XJ6JY4YY46Bus3tMZYHSOB2gbATvwQNgPrdnCSVSnut5x5HjNtYd0q/SRWUuZsXG83XS18lJbjJRWBjiyoqHDE1YQcFoHDw3fhZPqN0KOio6CBlPSxCOJpyTvfI7ve9x2knivZjI42MjjY1kbGhjGMaGta0bg0DZhfSsSldWWhxEuI65LFrrROypZdbLMaS6REvywhsdRneHA+rk9+Rg9/FbXXNOuSiMnHNBq5a0d0sgujjb7hGKK8xEskgeC1kxbvMOttz3luc94JG0VNP7g+K30lop3f3m8TtY4DeKeNzS4nG3aS0cgVm3e10NfC+eZ/o89LG6aOrYCHxiIa/r4IJA7tuR3EHfz1BPdLvVx3O4zPmNLStoqaSTALtUkE7O8ZOT3k+CylKMIur2cPbwN2GoSxFWNFceXE1YYmQRRQs9iJjY28mjGV6Ii88227s+jRSirLQIiKDIp0H3yzfoo/WjXTrmKD75pv0UfrRrp+gu7H0ce5HzzG+s1PeYTooikqjoLKsrvQ9LL3SA4iuNEyta3u7Rha8kfrPWqsiMO/8AW1h1R60ttqGHxGpP/ILbTzuvYYyP0CkZ7Uh/JHhxVpfMbAxjGjuGOZ4r6WkyJREQEcE65oiAydI6GpuNju9HTAGeanzE0/SdG5sgYPE4wOa42wVcVVa6RrARJSMZSTxu9pr4wACQdu0YPxHcv0hfnektDJo9dxfqZhNsuTxFdY2Ansp3HPagfjHaPHI+mtsPOW6YvLM0eii+WPjkZHJG5r43ta+NzTlrmuGQ4c19LWZBU7r9y7x/oaj6quKndPuVeP8AQ1H1VlHrIh6GHavudQfmv4nK6qNq+51B+a/icry4tf0ku9n0TCer0/dXIIiLSWgsute+3VtHd4mktY4U9a1v04nbPLYPFoWoviWKOeKWGQZZKwsdxAPePEbxyW+hV6Kalw49xTxuGWKounx4d5uMeyRkckbg5j2NfG4bQWOGsCF9dc1z2jtVJH6VZ6k/bqIufTk7O0pydzc8Mgjwd4LoV2ZKzyPnzTTalqgiL4lmhp4p6id2rDBG6WV3fqt7h4ncOaxBg6TVchjpbRTH+8172Pm/Ega7LQfAkFx8G+K+oIY6eGGCMYZEwMb443uPid55rNt3bV1VW3mpH2ype9lO3ujjHqnV8BgNHI8VrKljamapLhr3nrdi4Xo6bry1lp3fn7BERc474REQkp0H3yzfoo/WjXTrmKD75pv0UfrRrp13Y+jj3I+eY31mp7zCdc065opKoAJIxtJwAB4rKtGtc9NoZ6VuvTWWimiqps5aZJGyRBrSNmSXEDwYTzi+XKWigipaNrpLpcSIKKKPbIBIdTXA4nc33n6K67RixRWC2Q0nqvqpT6RXzN/zKhwAIaTt1WjDW+A8VtXmxu+Ji83Y20Tgi0mRKIiAKOualQgJXhVUtNW09RS1MbZYKiN0Usbtzmu8d+e8Hu9y9kQH5hGyr0YuH2FuEhdb6hzpLTWP2DDnf4bzuG04cO4nO5+zc27u8bMcF0N6s1BfKGWiq27D68MrQO0glAIEjM/AjvBx3rgqWqr7RWCxXwgSsAFvrCT2VVFnVaNd3wBO7ce4u3ddXWpisjc65qndfuXeP9DUfVVzbtyNo3+Cp3X7l3j/AENR9VYR6yJehh2r7nUH5r+JyuqlavudQfmv4nK6uJX9LLvZ9Ewfq9P3VyCIi1FoIiIDMuTJoH011pf/AJFC4F47pIdxDvDaQfA+C6ilqYaynp6qA5imYHtzvaTsLXeIOw8llEAghwBBBBB3EHYQVSs8xtdwltUrv7pWHtqF7j7Mh/y/927mB+EuthKm/Do3qtO48ltrCbk/KIaPXv8AydQuZ0iqZKypprFTOI2tqLg5v0ABrNafyQc83Dgtu5V8Vsop6yTVLmepTxu/zJ3A6oPgN7vAeK5200sscctXUkuq61xmlc/2g1xLgD4nOTzx3LfOp0MHU48O85eBwrxdZQ/Tq+78mhHGyJkccbQ1kbWsY0bg1owAvpEXDbvqfQEklZBERQSEREBToPvlm/RR+tGun65rmKD75Zv0UfrRrp+uS70fRx7kfPMb6zU95jrkqtfX0tspZaypI7NmRGzODNJjIYDw73HuHz+6urpKCnkq6t+pCzYMY15X4yGRg7z5bzsCp6P2Wr0krINIL1FqWyEh1ooHA6koB1myyNd9DO0Z9o7fZADtkY/qloVG+CL2iFjq5pn6T3lp9Pq25t8L26votM9urr6p3OcNjR3N8XnHcIpWEpOTuwlYhFKhYkkoiICE6CIgCIiALMvVkt19o3Ulazdl8EzAO1p5CMa8ZPzG4+WooUptZoH5gJ7no7URWu/ZfTuy2guTA4xSsG5shO3Z352jxHrK/dCHWq7EEEGgncHNILXAtyC0jZhdvXUNDcaaWkrYI56eT22PzvG5zSNoI7iDlfnN4sF/0fpbhHQufcLHUQTsdG8F1TQh42v1WbSB3kDHEDGsd0bTaejMHdIp2r7nUH5r+JyurOs00EtDSxxyMc+KPEjQfWb6xOccPFaK4NdNVZX7WfRcFJSw1Np8FyCIi0lsIiIAqdxozWU+qzIniPa0zgcESDBwD4+eOCuIs4TcJKUdUaqtKNaDpzWTMNlRV3+ppHVbA2mtsTWytHsy1X0i4cXEAuHcAB3rcQADcAMknZx4otuIrutK9rLsKuBwUMHTcU7t6sIiKuXwiIgCInHgBkk7ABxJOxCCnQffNN+ij9aNbVyudBaYO3q37XNJhhaQJZiO8Z2BvEn5nYuVZW1X2dlNmgFfWTUYpYGRtL2hxLS6Ug4Gq3G8kDyPcWDQ30edt3v0ra+7OcJGNcS+npHjcW63tPHccADuA3n0UIpU4ufYj53jZb2IqbvazNsujlwv9TDedJIyyiZh1utbgQ0szrB07HbQ3cdU7Xb3bPVP6IAAAAAABgAbgAiLCUnLUrJWCInXNYkhE65IgJREQEIiIB1zREQBOiiIBwTkidckByl60KtdwkfWUDzbbjkv7WnbiGR/GWJpG095BB45XH1Y0gsTtS90Tn04OG19H9shd3Zc4AD4hp59/wCtqHNa4Oa4BzXDDg4ZaQd4IOxJKNRbs1fn8SxQxNXDS3qUrcvgfllPVUlU3Wp5mSbMloJDxzY7avZdJc9BdHK9zpaeOS3VJJcJKAhjC7i6F3qfADmueqdF9N7cSaWalu0Dc4a89lUYH4sp/wDL7lUngk86cvBnoKG3YvKvG3tX8+58IsyW51NEdS62uvonbi6SJ3Znk54Dfg4r1iu1omALKuMZ7nhzfmRj5qrLDVo6x/ngdentDDVerNeOXMvIvNs1PJ/hzwP/ACJWHyK9QCdwzy2+S0NNalxSTzTIRTqv/Bd8Cvklrfac1v5Tmt8yoJukSiryVtvi9urpxyka4/BmVSkv1pY7UjfLPKdjWQMySeGHbfkt0KFSfViytUxdCl15peJqpuDnHAa3aXOIDRzJ2KpBDplc8fY6xyQRuxiouH2luOI7bVPwYVsUv9n9dVubJf7xJIAc+jW/LWDw7WQeUY5qzHAy/qNL5s5dfblCGVJOT+CMCovNDC9sNOH1lU86scNM1z9Z3AFoJPuaVpUWiWk98Mcl4lNst5Id6LEGmqkHiza1vNxcfxQu8tljslnZq26hhgJGHy4L55Py5n5efitLCu06dOl1Fn2v+ZHn8TtCvifNm7LsX8zM61WW0WWEwW6lZEHYMshy+aZw+lLK71iff8Fo+5EWTbbuyhoERFACIiAIiICUREAREQBERAEREAREQBERAEREB8locC1wBB2EEAgjxBWVVaNaL1pJqbRQPcd72wMjk/Xiw75oilNrQNGVN/Z9ofLtZT1UB/5FXPs5CRzgs+o/s+0eh1jHVXVvq5x6RCfOLKIrMJN6sweWhTg0Js0rnNdWXTAGdk0P74lqRf2c6LYY6SW5yZGSH1QaP/1saiLKUmtGYNt6mhDoPoXBq4tUcpHfVSzz/ESPLfktqmt9tohq0dHS0w3YpoYotnjqAIiqyk3qzaki0iIsSQiIgCIiAIiIAiIgCIiAIiID/9k=;" vertex="1" parent="1">
          <mxGeometry x="200" y="80" width="80" height="80" as="geometry" />
        </mxCell>
        <mxCell id="FzvfpjTC2ta0bPmBSBWZ-4" value="" style="endArrow=classic;html=1;rounded=0;exitX=1;exitY=0.25;exitDx=0;exitDy=0;entryX=0;entryY=0.25;entryDx=0;entryDy=0;" edge="1" parent="1" source="FzvfpjTC2ta0bPmBSBWZ-2" target="FzvfpjTC2ta0bPmBSBWZ-5">
          <mxGeometry width="50" height="50" relative="1" as="geometry">
            <mxPoint x="450" y="190" as="sourcePoint" />
            <mxPoint x="520" y="100" as="targetPoint" />
          </mxGeometry>
        </mxCell>
        <mxCell id="FzvfpjTC2ta0bPmBSBWZ-6" value="Input: Store Inventory" style="edgeLabel;html=1;align=center;verticalAlign=middle;resizable=0;points=[];" vertex="1" connectable="0" parent="FzvfpjTC2ta0bPmBSBWZ-4">
          <mxGeometry x="-0.2113" y="4" relative="1" as="geometry">
            <mxPoint x="26" as="offset" />
          </mxGeometry>
        </mxCell>
        <mxCell id="FzvfpjTC2ta0bPmBSBWZ-5" value="POS System" style="shape=image;verticalLabelPosition=bottom;labelBackgroundColor=default;verticalAlign=top;aspect=fixed;imageAspect=0;image=data:image/jpeg,/9j/4AAQSkZJRgABAQAAAQABAAD/2wBDAAsJCQcJCQcJCQkJCwkJCQkJCQsJCwsMCwsLDA0QDBEODQ4MEhkSJRodJR0ZHxwpKRYlNzU2GioyPi0pMBk7IRP/2wBDAQcICAsJCxULCxUsHRkdLCwsLCwsLCwsLCwsLCwsLCwsLCwsLCwsLCwsLCwsLCwsLCwsLCwsLCwsLCwsLCwsLCz/wAARCAESARIDASIAAhEBAxEB/8QAHAABAAEFAQEAAAAAAAAAAAAAAAMBAgQFBgcI/8QAUhAAAQQAAwMHBA0IBgkFAAAAAQACAwQFESESMZEGEyJBUWFxMoGhsQcUFSNCUmJyc6Kys8EkMzQ1U5KU0SVDdHWC4RZERUZUVYPC8GNkZZPx/8QAGgEBAAIDAQAAAAAAAAAAAAAAAAQFAQIDBv/EAC4RAQACAQMABgkFAAAAAAAAAAABAgMEBRESExQhMUEGMkJxgaHB0eEVIlFSkf/aAAwDAQACEQMRAD8A9bREQEREBERAREQEREBERAREQO1ERAREQEREBERAREQEREBERAREQEREBERAREQETinFAROKcUBE4pxQETinFAROKcUBE4pxQE0yPV3nqTiorLtmtbdr0YJncGEoOdxPlBHRgixC3as1alicQVGVK0c8r82l7Xy84Cc3AZgDLLMDUrV/6c4J/wA2xMfSYS38GhRcpuhU5GgZ9DHKB/crOKn9tHrJKrdZr40torMc8uV8nQnhQcusCG/HJB9JhUn/AGkK8cvMA/57U/6mGXR9hyjNqMby0fO2fxVhu1RvdF5gw+oKHG81n2Pn+GnXwyhy7wI/7bwvLvpYgz1kqQcuMCP+2cGPzm3WethWsN+j8WM+ETT6wrDdw474GHxgh/ELb9Wj+k/7+Dr4b2Hllg88kUMOIYPNNK9kcUUVqw173uOTWt24Msz1aroq1mO1G57Q5rmPdHLG8APjeN7XZEjsIyOoOfWvMMQsUpJeTwggjjeOUGGEubFEwlu04EZsGa9Fw/8ASMV+kqnz8w0K002eM9OnEcOtLdKOWxROKcVIbiJxTigInFOKAicU4oCJxTigInFOKAicUQEREBERAREQEREBERAREQFjXzs0MSPZTsnhG5ZKtexkjJI3tDmPa5j2nc5rhkQUHnvLh3N4fgLg2R3NYq2QiJjnuyZXcNzVyPurH+yvfw0q9Z9rYlX96bAbDGdGKVk0bHlg0AlbJl0h1kE579M8gDMT/wCAePG1B+Cj5dPTNMTZzvji/i8m91Yv2N7+Fl/knupF+xvfwsv8l6sHztlkhmidFIyOOUDnGyBzXlzd7QNxBV+0fjHiVx7DiadRR5N7qR/sL38JL/JPdSP9hf8A4SX+S9XfK2Nkkj35MjY57yc9GtBJ3aqgllI0q4j/AA7h9pydhxHUUeUx3PbN3A444LgLcYw2Ql9aVrQ1szQTnl3r2HD/ANJxX59X7kBY21aI0pXz3FkLftShZtCCeIWZp2tZLZkY7m2uDhFGxgja1zhoXaZkjTXLqzMrFjrir0autaxWOIZqIi6NhERAREQEREBERAREQEREBERAREQEREBERAREQEREBERA7UTtRBrb9ed0sNqBhkLWOhniaWh7oydtrmbRAzac9MxmCezXDY9sjI5G57L2Ne3MZHJwzGYWfZxFkEzoGQTTSMY10nNuia1m3nstJkcNTln/APq1ldr44K8btHMijY4A55ODQDqgljhkuyOgazKtHLGLcriOnshs3MxtGuubdonLTMa56b1aSnbZUN1skNgiWwJWOijD2lvMxs6jnvB6lmjFcP8AhGy0/Kq2fwYQgzkWF7q4XuNgN+kZKz7TQr24jhbt16pn2GeMHgTmgykULbVN56Fmu75ssZ9RUoIIzBBHcc/UgqiIgIiICIiAiIgIiICIiAiIgIiICIiAiIgIiICIiAiIgdqJ2og5vE7BqPx60GCQ1+akDC4tDyK8QALgDlv7FpW8pN21h+euvN2h/wB8a2WPn3jlR9HH9zAuObv85Vvt+kx6itpyeTzu87hn0dqRimO/nydK3lBWJG1StjvY+u8Di5pUzcbw8747rf8AoNcOLHlc2xTtUy214fKZV2PftR7UR8/u6JuL4Y7Mc/K36StZb6djL0q4YnhLx+m1v8Zc3Lx5xoWib1KdpOmpUa22Vjwsn495vPrUhuBLhcxGzLQlJOQ2X13knsABzXNcuT7SwOKen+TTnE6rOdre9SbJjmJbtR5HLT0LaRNYZISWsOUjCCWtORDhkRmtT7IRH+j8H97VPubCrtRg6mYjnlcaXU9orM8ccM72McaxLEqWK1L08k5oTQmCWZxfJzczSdhzjqciNF6EvK/Yj/3n+fQ+zIvVFGTBERAREQEREBERAREQEREBERAREQEREBERAREQEREDtRO1EHJY+feeVHzGfcwLkBvXW4/+Z5UfNZ9zAuRbvPiV6LZ/Vu8d6RxM5MfH8T9E7NwU7Vih4GWiqZT2lW1lHjxW82cHNbvICu9sMG4E+ha7nE5xcprymV/a2sNvOWABg6UsTd/a8DsWD7IR/oGuP/la33M6tryZ2Kg7bMH3gT2QT/Qdb+9a/wBzMqLc44vX3PT7RPNLe89iPdyn+fQ+zIvVF5Z7Efk8pvpKP2Xr1NVK6EREBERAREQEREBERA4JwREDgnBEQOCcERA4JwREDgnBE0QOCcE0WvmxfDoi5rJHTyNORZVbzuR7C8dAedyDYLBnxWhA98Qe+aVh2XsrMMhYexzh0Ae4uWps3blzNrne165/qYXnnHjL+tlGR8zcvEqBoY1oa0Na1ujWtADR4AINwMaq59KC40dpia77txPoUgxjCshnO5v0kE7O74TFz9i1VqRPnsyiOJuQ8lz3vcdzI42Auc49QAXOWbfLnFXFuE0pMMpZkCW09sVqRvxnnpPb4Bo8Sg3+Nyxy1eUssbw6Nzc2vbuIEUAORPnXHmTU+ddFgtK5WpWqmJ2oLsz7Mj5SJXWAGPa3KOQya56E5d6yX4Tg78s6kQIzy5vaZ9ggKz0OsppomLRzyqdx0N9VNZpMRw5PnO9Oc710b8Awt2Ww6xHv8mXazPftgrGfybZ/V3Xjt52JruGyQrau5aefGZj4KS206qvhET8fu0vOd6c4ti/k7iA8ixVfqc9rnI9OBWM/BsaZ/q7X6/1UsR8/SIUiuqwW8Lwi20Wpp40lbUfnbojttQfbCyPZB/UlTvxSH0QzLHq08Riu0TLUsMaLUO04xktGTwSSRmMlN7IB/oSl/ekX3Mqpt1tW169Gee5f7NW1cdotHHf9EvsR+Ryn+lo/YevU+C8t9iPyOU30tL7D16kqdeHBOCIgcE4IiBwTgiIHBOCIgcEREBERAREQEREBFaXKwknNBeXLFuXq9ONrpS4veSIYo8jLKRv2QeodZOgWFYxWMbTKbRYkByMmZFZh73jVxHY3zkLCry7Fk27LTYmIA2idkNy3BjdQGjqHn1OqDOFO/iPTxCUw13atpQHogbxzzjq4+Iy7lk+5VENDGh7Q0ZDZdu8x09CrHidN2QcXxnr225ji3NUt3444xzD2Pe5rjtZjZiaN7nE6cfwQYdmhVg329gkaNezbcfMwg+hae7dw/Do+eu2o4Yz+b28+cl+jiGbzwXN45yzgrmaLDXNnn1Et6bpQsO73oO8o9507itNQ5N8puUEnt+299atNk51/ExIZJWn/AIeA5SO7vJHejLPxDlwGkjDajW5HZZYugOeSdPe4WnLXvJ8FAMK9kXHGNlnE8UMgLo24hZjoxuB1GxXGTsvFi6/C+T+CYKxz6UHO4kA3YxHEGtnlYcwTzcQyY0HUdHt3lZzn4jtF0kdebPe5sskbz35SNcPrIw47BsL5W8nLE/trB7NihZ2effhrorRjczRsrWRO2zvII2c8vDXr2uD2CQB4Yc9XxyRkHsLZACD4hXNtvjyLq92I9rGc40eeBzj6FPHiwJ2W3WF27YnIaT3bMwBQY2aqs82GPAMtWvID8Jrdknwc1Uywx+ecViLvjeHjg9GWCizPatRw6FvLumjLd3yhoqHD7JGcZhl0z96kBPA5IMTNcjy/J9xqP95s+5kXZvrWo89qCbTqawuJ7hlpn51yWPYVj3KN9SrsQ4dhdaV0rnzyNntzyluxt81D0AAMw0F/XmewBF7FlqvUh5RPsSc22WxVaxzmvLSWRkuG00EaZjivTmYjhj/Iu1D3c9HnwJzXI4XhdPB6UNKmHc3GXPe95zklkd5UjyOs/wCXUs0tDvKaD4gH1oOqa9jxmxzXDtaQ4ehXLh7tjCcMiZZtvjrc49scDohsWJZXODQIBFk8nPedw6yupwyxNNVaZjtSxyz13v0HOGGQx7eQ0zOWqMM9FQFVQEREBERAREQEREBEQkBAJyUZcjnKMuQWyzRwxyzSu2YoY3yyHsa0bR/yXOuuvxIdOaLmXatqwSDLLeBOQdpx7Ru7jlmtljB2sKxUZ/6s46dgc0rzxB2mzkAAMgBkBlkAOwBMlykV6/DlzdiTIbmuO23g7MLNixu0NkSxQyDMAlubHa6dWY9CMt1PNWqwzWbU0cFaBu3NNKcmMb/M9Q61yko5UcsjzOEV30sBz6Vu7tRMsAfDeB03dzW6DrOe6/F/de5ykqU465s0aMMFlkb4o3VIppY/z1nnegSDnlnmewaa9RHjXKOsA2xQr2I2jZ2q52HZDTc0kfUQa/B+THJrCtieENxa+3UXLOw+GJ2W+vA0lg8Tme9bp75JHF8ji5x3lx9SwvdfkrYdlewt9WY+U4QgEf44dmT0LMhiwGz+g4zNGc+jG6w1/m5u40uRhRFO7C8XZrFYpWBvHOxSQOI+dEXN+qoHRYpF+dw2cgb3VZYpx5mktf8AVQFZM6Bsbn2DGIho4zAFuu5oBBzJ6hkqNknldzVapYfY3ltiKWvFEPjzSSN3eGZPpU7IYq7mTueLdxuezO5mVevn1VY9R5zme/XIBiQ0YXPbPLWNSDZeY4mPkhuTucMg9zYnAMaOrPMnsG5VMMzc+at2AOps4inAHi9od9ZZBLnEucc3HMuLj5ySSqV4bWIH8lcYqmeT7uWr8tC2o1wyPzyMuzPeAgj90ZJ/asQpzzhm2/8APxCNu4OlLdtoz6hmCclu6lKvhzJ7VmcPnMRNmzMRHFHEzplrATstY3fv7ySrLFnA+TmHS2LEjKtSI5ue8l0k0rtcut7nu854aeNcpuWGMcqrLaFSGePD3SbNahAC+e05pzD7GxvPWBuHeRtINxyz9kOW5Haw3AJHxVNl7LF8ZtlsDIgsr9bWdp3nuGr+zrj8nq/2eD7sLhcD5BE83Zx13Y5tCB+nhYladfBp8/Uu5t2sPwyq61dnjrVYxsBzt7iBpHCwdJx7gOCCcNc4gNBJO4DeuVx7llh2Fc7Voc3exFubXEOzqVnfLc09Jw+KDl2nqXL4/wAtL+JiWphwkpYe7NryHAWrLf8A1Xt3NPxQfElcl5kZbL27fxXF8PsXp5J55b9Fhc86NaZ2ANY0aBo6gAvoDCz+RtcPh2Lr/wB6xIvn7Aq89rGsFhgifK8X6k8gYM9iGKZr3yP6g0dZXv2GH8gpH40fOfvuc/8AFGGzDlIDmsdrlI125BKioCqoCIiAiIgInnRAKjcVc4qJxQUcVGSqkqJxQYuI9LD8Tb8anYHBhK88XolobVa6341Wy3jG5eeFrmENcC06ZBwIJHbqgonf2EIh3HwQdDZxeWrbngdAx8cZbskOc1+RYDqdR6FfHjWHvy2xNEflNDmjztOfoWqxf9YWe8QnjE1YCDsWT0LQ2WzV5QdNlzmk/uv19ChmwjDJfKrhh6jGSz0bvQuU0U8Vu7D+asTMHYHnZPi06ehBvm4bdra0MTsw5a7LnO2T3dEgfVWQzEeV1Xym1rrR2hodl4t2D6CtPFjl9n5wQygfGZsOy8WZepZsePVXZCaCVh6ywtkHA5FBs2crGM6GIYbZh0ycWdJp010kDfWUil5FWSDDMKcjt3NyT08uBEahjxDDJ+i2zHr8GUFh+uMvSkmHYbOC414jnn04ujnn8qPRBtYsHqTFrnXp7lTR3MvfC6J7hu5x8TQXN7icu3NQ8ouU+DcmKrX2nB9h7D7UpQlolly0z7GsHW4jwzOh0pwSON23Ut2K794LSTl52lp9KwYOSdJ+I2sWxeZ+J3ZZQ+IWs3QQsaA1g2HklxA3ZnIdQ60HKmnyv5eW2YjiEntXDQT7Wc9rhDHE7eKcBObidM3Hf2nLIdzg+AYTgsfNUYPfpAGy2JMpLM+7Rz8t3cAB3LYWbFSlXkt3J4q9WLIPlmOTQeprQNST1AAlebcoOXdu6JaeDc7UpuzZJZPRuWWnQgEeQ09gOfaepB1OP8rsKwTnK8OxdxMZgwMd7xXP/uJG9fyRr2kLy3EsVxPF7BtYhYdNJqIx5MULPiRRjogeCwkQFsMLwi7i0kwhdHBUrN5zEL9kltSlF8aR3W4/BaNSfRk4XgrbVeTFMTsOo4HE8sdZ2QZ7kjd8FCM+U47idw8ytxXGXXY4aFOBtHBqrs6lGI5ja3c9ZfvfIesnzd4dDgWKUIMZwjCMCjfHhxmmkv3J2gXcUfDXleHS/FjBGbGDxOq9Vo9GlQHZWr593QBXh/JL9f0j1R1MVl/cpSr3KAbEULPiRxt4NAQZTSpWu3LHBUjSgyGlSAgqBpUrSgvRE86AiedEBEVCgscVG5Xu61G7rQRuPeonHfqpD1eCid1eKCKTpRzN+NFK3iwhc0/FoYnNrWKolibDXAcC1xIdEx2rHjL0rpt7gO0gcdFwd8ZTt761X0RNafUg2wj5MXPILYJHbhm6A5+BzjVk3J4uaXVrQLSOjzzM2nwfHp6FolLDYs1znBNLGfkOIB8RuQZmMgDEJhmM+arE/wD1NC1y2PurJKA27WrWmjTakYGSjwez+Srs8n7G59qk/wCVlPDn4+Ug1qLZnB7LwXU5q1tnVzMga/zscfxWDLXs1yRPDLH1e+MIGfzt3pQRdqIiAr45ZoiHRSSMPbG5zfUVYiDYxYzikeWcwkA6pmNcT/iGTvSprHKk06du1LRbI+CIvY1kzmMe8uDQHZgkDXXIrULX41+qsR+ZH96xBy+L43i2N2OfxCcv2MxDCwbFeBp+DFGNB3nUnrJWtRXMZJI+OKKN8ksr2xxRxtL5JHuOQaxrdSSgsJABJIAG8ro6mEUsMr18W5SMfzczOdw3Bmu5u1iA6pbB3sh82Z6u+dtbDuSrY5sRjgvcpshJXw8kS08JJGbZbhBydKN7W55Df2Fc7buXL9me3cnknszu2pZZTm5x6u4AbgBuQZOK4tfxew2e05jWRMEVWtA0R1qkI3RQRjQAcT1rXotxgOA2ccnedp0GHV3sbdthu0dp3k167fhSu6h1bygzuRdO1Nic1uOJxrwVbNR0uWTPbFtnNRxNPW7UkjqAJXtIy7dy1OF4bVoQV4YYGwRV2Flauw7QgDvKc93wpHfDd5hoNdoOpBO096kad2qhb1KVvV4oJm9Slae9Qt61IPwQTBVVo6lcgIiICoVVCgicN/iondfgpnetRFBC7XLwUburuUrh6FG4IIh5bfnD1rh8Tbszxd8DfqySM/Bdw4LQ3sMgmkldN7ZZ03mGaBvOxtY9xk2JYh0hkSciBqD3IOXRbOTBbuTn1Xw3I27zXeA8fOjccxxWueySN2xIxzH/ABZAWu4FBaiIgqC5pDmkhw1BaSCPONVnw4xikI2TNzrMstiw0SDLxdr6Vr0QbX27g1j9Lw4ROO+Sk7Z17Sw5etVGHYZZ/QsTZtHdFbbsOz7NrT1FalEGfPhGKwamu6Rm/agIkGXbkOl6FgkFpLXAtcN4cCCPEHVTwXb1bLmLErB8UOzYfFrsx6FsG42+UBl+nWtM6yWhj/UR6EGnWuxv9VYh82L71i6rY5MWvJksUpD1PzdFn4naHqWHivJuWzh9tsOJUG1XCN09uV+zHXia9rnSPyJByy0GeqDzKhQv4pbgoUIHz2psy1jdA1o3vkcdA0dZK377uHclmTVcGmjuY7Ix0N7GWjahqA6OgwwHgX8N/RhxDGqFOrLg3JtskVCTJuIYhKNm9irhods6FsXxWjz78jziCrnOc5znOLnOcXOc4kuc4nMkk65lURb7k7ycnxuR88zn18JrSNZastGcksh3VqrTvkd6N6Czk/yes45K+R7n18LrPay5ba3N7nndWqtPlSu6uzeew+t4fQrU4K0MMDIIKzCypWYdptdrvKcXfCkd8N3m3b1KnBWirRxQMrwVmGKnVjObKzDvJd8KR297uv7We0IL2qVvqVjQpGhBI3qUrerxUbQpWjcgkb1qRv4KxoUjQgkCuVAqoCIiAiIgscFER61OVG4IIHBRELIIURaggLVGRvU5CjI3oMOWvBI7bcwbY3SMJZIPB7CHelQyxTOaWPdFaiOfvd6MPPmlYA7iCs5zVGWoNDPhWGPzOzZou11/SKvnc3pAeYLBlwTEWNMsIitw79uo8P0727/WuoIUDq8W1zjQY5N/OQuMbz4uZln580HGOa5jix7XMcN7XgtcPEHVUXZSNlkbs2I69yMfBtMayQeEsYy+otZPheFSZlr7FB/ULA52vn2c60kfWCDQdqLZT4LicLdtsbbERzIkquEgI8Br6CtaQQS1wIcDq1wIcPEHVAREQFq+UDi3CbIG581Zrsusbe1rwW0Wp5Q/qqX+0VvWUHFoi6TkzyYkxpxvXXSQYJXkDJZWA87clzy9r1RvJO4n8dwW8m+TUuNOfbtOkr4PXkDLE7B77Ykz0rVR1vO4nq9XqtWrFFHWYyCOvBWjMVOrF+bqxnfr1vd8N3m3eVdXrRsbXa2COCGvHzVOpFlzVWLLLIZb3n4TvNu35YagNbkpAEa1SBqAApAEAUgHcgq0KRoVGtUrQgq0KVoVrR/kpAEFVVEQEREBERAVpAVyIInBRELIIzVhagxi1WEb1kFqsLd6DFLVYWrJLVYWoMYtVhasktVhb3IMYtVhbv79+SytjtVpZvQYXtdjHF8RfC855ugcYyT8oDonzhWzMfMNm1Xq3GjcXtEM48HtBb6As3YVNkoNDNhOGSH3mxNSkJybHebnET8mUHZ+usCxg+K1htOgMseWYkrHnGkduQ6XoXWbGehGYO8EDI+IUTazYyTA6SuT+wOTCe+N2bPqoOI6yOsaEdYWp5Q/qqX+0VvW5ekz1+fBFunWtjL85H7xYHhn0T+8Fpb3JzBrwhhkOKCsLEc09VtdxfKI88ohNo0A56na3daDguTHJd2NE375khwOCQNe9oImvy55CvWA1OZ0cR4DrLPV4K7WtrjmY4Iq8Yip1YgBFUiyy2W5aFx+EfMNPKkgrZCAmKOFkEYip1YchDUhA2Q1gGm0RvPmGnlZQYgjDVeGq8NV4agsDVe1u5XhqvDUFA1XhquDVeGoKNCka3cqhqka1BRoV6IgIiICIiAiIgIiICpkqogjLVYW71OqEZoMYtVhYsktVpYgxS1WlqydhWlgKDGLFbsFZJZ3KhYdUGNsKmwsnYVNjuQY2x/5omwsnY7k2O5BjbH/AJoqhhWRsdybCCHYVQxThirsHsQQ7KvDc1IGhXhu5BEGK8N3KQMVwagsDVeGq8NV2SC0DJXIiAiIgIiICIiAiapqgImqaoCJqmqAiapqgJkE1TVBbshWlgUmqIIixU2FNwTJBBsFU2VkZKmygx9hNhZGz4Js+CDH2FXYKn2fBVyQQBhVQxTZJl4IIwzergwdyuTVBTIdyromqaoCJqmqAiapqgImqaoCJqmqAiaogInFOKAicU4oCJxTigInFOKAicU4oCJxTigInFOKB2onbvTigInFOKAicU4oCJxTigInFOKAicU4oCJxTigInFOKAicU4oCJxTigInFEBERAREQEREBERAREQEREBERA7UREBERAREQEREBERAREQEREBERAREQEREBERB//2Q==;" vertex="1" parent="1">
          <mxGeometry x="560" y="78" width="84" height="84" as="geometry" />
        </mxCell>
        <mxCell id="FzvfpjTC2ta0bPmBSBWZ-7" value="" style="endArrow=classic;html=1;rounded=0;entryX=1;entryY=0.75;entryDx=0;entryDy=0;exitX=0;exitY=0.75;exitDx=0;exitDy=0;" edge="1" parent="1" source="FzvfpjTC2ta0bPmBSBWZ-5" target="FzvfpjTC2ta0bPmBSBWZ-2">
          <mxGeometry width="50" height="50" relative="1" as="geometry">
            <mxPoint x="510" y="160" as="sourcePoint" />
            <mxPoint x="570" y="109" as="targetPoint" />
          </mxGeometry>
        </mxCell>
        <mxCell id="FzvfpjTC2ta0bPmBSBWZ-8" value="Output: Inventory Reports" style="edgeLabel;html=1;align=center;verticalAlign=middle;resizable=0;points=[];" vertex="1" connectable="0" parent="FzvfpjTC2ta0bPmBSBWZ-7">
          <mxGeometry x="-0.2113" y="4" relative="1" as="geometry">
            <mxPoint x="-25" y="-3" as="offset" />
          </mxGeometry>
        </mxCell>
        <mxCell id="FzvfpjTC2ta0bPmBSBWZ-12" value="" style="endArrow=classic;html=1;rounded=0;exitX=0.75;exitY=0;exitDx=0;exitDy=0;entryX=0.75;entryY=1;entryDx=0;entryDy=0;" edge="1" parent="1" source="FzvfpjTC2ta0bPmBSBWZ-9" target="FzvfpjTC2ta0bPmBSBWZ-5">
          <mxGeometry width="50" height="50" relative="1" as="geometry">
            <mxPoint x="310" y="130" as="sourcePoint" />
            <mxPoint x="590" y="129" as="targetPoint" />
          </mxGeometry>
        </mxCell>
        <mxCell id="FzvfpjTC2ta0bPmBSBWZ-9" value="" style="shape=image;verticalLabelPosition=bottom;labelBackgroundColor=default;verticalAlign=top;aspect=fixed;imageAspect=0;image=data:image/jpeg,/9j/4AAQSkZJRgABAQAAAQABAAD/2wBDAAsJCQcJCQcJCQkJCwkJCQkJCQsJCwsMCwsLDA0QDBEODQ4MEhkSJRodJR0ZHxwpKRYlNzU2GioyPi0pMBk7IRP/2wBDAQcICAsJCxULCxUsHRkdLCwsLCwsLCwsLCwsLCwsLCwsLCwsLCwsLCwsLCwsLCwsLCwsLCwsLCwsLCwsLCwsLCz/wAARCAEJAQkDASIAAhEBAxEB/8QAGwABAAIDAQEAAAAAAAAAAAAAAAEFAwQGAgf/xABNEAABAgQBBQgMDAYCAgMAAAABAAIDESExBAUSQWFxBhMUFlGBkbEVIkNSU1Ryk5ShstEjMjM1QmJ0kqLh8PE0RHPBwtKCsyTiVWNk/8QAGwEBAAIDAQEAAAAAAAAAAAAAAAQFAQIGAwf/xAA1EQACAQICBQoGAwADAAAAAAAAAQIDBAURFBUhUpESMTNBUVNxobHREzI0YYHBBiLwFiNC/9oADAMBAAIRAxEAPwD61qH7JZKBBym6AnaoRYMXi8JgoL4+KjMgwWEAvfpJs1oFSdQCylnsRhtRWb5jPUmnSh9a5SLu3yWxxELCYuI0Wc4w4c9gJJWPjzgfEMT5yEpKtKz/APJXPFLRPLlrzOvTWuQ484LxDE+chJx5wR/kMT52Emh190a1tN/19jr68yLkOPOC/wDj8T5yEnHnA+IYnzkJZ0OvujWtpv8Ar7HXouQ484LxDE+chJx5wXiGJ85CWNDr7o1rab/qdelSuQ484LxDE+chpx5wI/kMT5yEmh190a1tN/1Ov1aUXIcecF4hifOQk484LxDE+chJodfdGtbTf9Tr6pU7FyHHnBeIYnzkJOPOC8QxPnISzodfdGtbTf8AU6/ULqVx/HnBeIYnzkJOPOC8QxPnISxodfdGtbTf9Tr0qdnWuQ484LxDE+chJx5wXiGJ85CWdDr7o1rab/r7HX6gi5DjzgR/IYnzkJOPOC8QxPnISxodfdGtbTf9fY69BM7FyHHnBeIYnzkJOPOCtwDE+chLOh190a1tN/1Ov2c5Rchx5wXiGJ85CTjzgvEMT5yEsaHX3RrW03/X2Ovsgndckzdxk8uG+YHFtbpLXwnEc0x1roMBlPJ+U4RjYOMHtaQIjTNsSGToew1XnOhUprOayPeje0K75NOabN2+xSVCUXiSxZJ6imtJoBrREvbnQCpMgvmW6jKMXGZUxEHOdwfAvdh4LJ0zm0iPlykzGwBfTaAjavkOVfnPK32/Gf8Ac5WeGxTqNvqRzuP1JRoxiut7TTTb0LJAAMSRAIzXUPuWeK1ohuIaAZtqBrUqviMKNzG3cc28vMh2X8dqXeHVMRU0lDlbMnn/AFWZqIt3JbGRMdh2PY17Tvs2vaHAyhuNirvKOGwsPAYx7MPAa8MZJzYbA4fCMFCBNQMQx6nY3tOylBtzy2+LaI9jglS8tJ3cZpKOezLsWZy6LNhQHYjDtcAQX1BAINDcFWuIgwRh8SRChgiE8ghjQQQNQUq+xWFnXhQcc3LLs7civt7KVenKonlkUiKEV1kV5KKETIEooRMgSihEyBKKETIEooRASihEyBKKETIEooRMgSt3JeUI2TMbhsVDcQ1r2tjtBpEguMntI9Y1haKOo1/knqWs4qUXFnpTnKnNTjzo+1giQIsQCNanWscH5KD/AE4fshe77Fx/MfUU81mLqZKL0SWtDIrYc6WoEn0papugAvzr5DlX5zyt9vxn/c5fXtM9a+b4/c9lyPj8oxocGBvcXGYmIwnEMBzXxHOEwVZYfUjTnJyeWw5/HKFStCCpxb29RzzXOaZtJBrUXkvTokRwkXOI1lW3FnL85bzA9IhpxZy/4GB6RDVq6ttKXKbWf4OejQxCEHTipKL6tuXAqYcWLCeIkJ7mPE5OYSHCYkahZH43HRWOZExMd7HSDmviOLSAZiYJVlxYy/4HD+kQ04s5f8DA9IhrSbtJyU58ltdbyz4msLa+hFwjGST6tpTtc5rg5pIc2rSDIg8oWR2JxTgWujRS1wkQXkgjkKtOLOX/AAMD0iGo4s5f8DA9IhraU7WbUpOLa8DRWd5FZKElxKZFdcWcv+Bw/pENOLOX/AwPSIa9dJo764mmr7ru3wKVFdcWcv8AgYHpENOLOX7bzA9IhppNHfXEavuu7fApUV1xYy+O44f0iGnFjL/gYHpENNJo764jQLru3wKVFcjczl82gwPSIanizl/wMD0iGmk0d9cRq+67t8ClUq54s5f8DA9IhpxZy+LwcP6RDTSaO+uI1fdd2+BSqVc8WcvnuMD0iGnFnL/gYHpENNJo764jV913b4FKiuuLOX/AwPSIacWcv+BgekQ00mjvriNX3XdvgUqK64s5f8DA9IhpxZy/4GB6RDTSaO+uI0C67t8ClRXXFnL9t5gekQ04s5f8Dh/SIaaTR31xGr7ru3wKVH/Ff5J6ldcWcv8AgcP6RDUHcxl8tcBBgVBH8TDWHc0d9cTKsLrPo3wPp8L5KD/Th+yF72LxDBEOE3S1jAdoAC9rlnzn0aPMhZK/opZM4LBsKXRNvMl9iAXVbEPbxAO/d1qyOpVr6PieW7rQHmya9KJdYAvsSc6BL0HOltqAWtdKCpugppSSAXS9BZL2tp1pqH7IBPQEoOdKBJcqAJfYl9nWmoIBqHOlBT9FLCQTWUAA5UvsS+zrS9EAqaC2lKWS1EtUoBQVS9TzJLSeYJfYgF9iTFgmr9Ba0eLEhvAa6QzQTQX50Bs0Ca/0Fhw7nvY5zzMh0hslqXnERIjXMDXSBbWg5daA2L7EPILcqwwIj4giBxnItrIUvyLNayAtBYbAlkFANgSU6nmWQL1PMpUX2Jm7UA6k2KVFkBNlWP8AjxPLd1qyVa+r4nJnu60B5Q1oLJW3SUtQXWAKDalppYVugQBL0FtKXoLJqCAaglh+qpYLSx+VMnZNDDiojt8e0vhQYTC+I5oMp6GgbStoxlN5RWbNKlSFOPLm8kbusrDicTg8IzfMXHhwGXG+O7d/kMHbHoXI43dXlCNnMwUNuEhn6fymII8sjNHMOdc/EiRYr3RIsR8SI6rnxHFzjtLqqzo4bKW2o8jn7nHqcNlFcp9r2L3Osxu6yE3OZk7D5xqN/wAUJAa2QmnrdzKxyNlmDlKFvT81mNhtnFhijYrR3SHq5Ro2L5+vcKLFgxIcaC9zIsNwfDewyc1w0hTZ4fScOTHY+0qKWNXEavLqPNdnsfVJaVpZSylhcmYffo3bPfMYaADJ8Zw0nkaNJ/uqrD7qMGcC+NiWf+ZCkwQGAhsd5Bk9pFm99yc65PG43FY/ERMTiX50R9KUaxosxg0AaFX29jKU/wDs2JeZd3uMU4Ul8B5yfl4/f7HQ4TdZGnm4/Dsc0n5TC9o9oJsWOOaekLo8JlHJ2OA4JiGRH6YR7SM2k6w3V6Jr5kvQJaQ5pIIMw5pIIOohT6uH05/LsKa2xy4pPKp/ZefE+q2ug5TzBcLgt0uVcLmtjuGLhCko5+EA1RW16Zrpsn5cyblJ7IMNz4WIcCRBiirs0TOY9vamXMqmtZ1aW1rNHSWuKW9zlFPJ9jLS+xE2JZRC0Fl4fBhvOc8GcpXIoveiZulSgPLIbWghswCZ1JNbaVD4cOIRnAzAlOZFF72c6IDwyGyHMMF71JXugSyXvzIC0FZE8lEvsUXlySCnUFkBK6ksk9qAUCInUgHUq2JWJEA793WrK9lWvo+JK+e7rQHm1BdLbUoK6UqsAJemjSl6DnTUP2QDULpQJQfq6bUAl+uRc1utgZ+FwOKA+RjPgOP1Yrc4etp6V0t9nWtDLGHOKyZlCC1pc/et9hgCZz4Tg8AAVmZEc697afw6sZEK/o/Gtpw+3ptPnChWkDIOW8RItwjobTKTsS4QhI6ndv8AhVth9yEQyOLxrWiRJZhoZcaAmWfEl7K6Od1Rp88jhqWHXNbbGDy++w5VEuikleSoREARF0mH3McLwWCxUDGZj4+HhxnMjQ5tDnCZDXMM5cxXlVrQpZObyzJNva1bltUlm0c2uk3JQM/GYvEkUw+HEJp+tGdX1NPStPEbnMuQJ5uHbHaKzw0QPMvJdJ3qXSbmcJEwmTnujQ3w42IxEWI5kRpa8NZKG0EGugnnUK8uIOg+S889ha4ZZVY3cfixay2l3ZOQqbVUX2LnjuBfYmoW0pqFk1BAEtVLXS9fUgF6nmQ12JemhNQQFpoA1BLJYDmTWVkDWVNFF9nWkhyIB1JeybEtQIBZVr6Pi+W7rVlZVr/lInlu60B5vdL2tpS9raVgxWKgYOEYsWZnMQ2NlnRHDQNXKf2OAMVioGDhb5FdIE5rGtkXvP1Rq0rJCiQosNkSG4OY8Ta4aVx+KxcfFRXRoxrZoHxWN0NaFf5GweKw8J747nN36RZhzUM+s76x/WoC0l0rW4dg3Yo4MRBvgEvqF/gw7lWhlTKm9Z+FwrvhCM2NFaficrGHl5To6qTDYePiozYMAdvRznGcobZ/HcepAdnqHOlrLxDa6HDhsc90RzWta575ZzyB8YyXvWUA1m+lLz5JO9kpfYl5gcjpn/iUMM+UaBsRBYIuzPlYRFKGCF9JyP8ANWSAPEoHsr5svpOR5disk/Y4HsqpxP5I+J0v8e6afh+zet+rprN023Sp2KiOxF1rYjHYTDRIMGLEDXxTWVRDabF/JPQtnlApr/dcnlHCYnCx3OiudFbGc5zIzrxCbh2vlQHWckuZKAEkgAAuc5xkABcknQueyXlPec3D4l3wRpDiHuf1XaupWuUcNHxeFdDhRC0zD8ymbGAs1x6v1ID3hsbhMY6K2C8kw3EScJFze/A5Ctm+xcUx8fDxQ5hdDiwnEchBFCCOtdTgMfCxsOkmx2D4SH/k3UgNydgEoP1dKBNZQFoLAnkCX2IKgckhzosgJXl9SUCT1IBPpS10siAKtfWJEGjPdPpVlfYq2J8d4HfO60B51D9ly2WN/wCHRt9zs2Td4nbegKZvrmupoFgxWEg4yEYcUSlWG8fGhu5R/dYBz+RxguFA4j5US4Nny3sP1z+lye9dBjDiOC4veJ77vbszN+NcTzdcpyXJ4nDRsLFdCiggirXCea9s6OaVf5HxmJxUJ7IrXOEGTRHNnfVP1ggOaXU5KGBbhG8FnnEjf8+W+mLL6cvUtbKmSw8OxOGb8JUxYbfp8rmjl5VTYbFRsJFEWEe2+K5pBIeJ/FI6kB2UuVL7F4hudEhw3uhuhlzWuMN8i5hIs6VF7qbW0oBe3On+ruopQUCWmT3rvZKGHzHyjQNiJoGwKarsz5UFClEBC+k5H+ask/YoHsr5vIr6RkeuSsk8nAoHsqpxT5I+J0v8e6afh+zevsTZzpqFtKKiOxFlgxYwfBoxxkt4kM4/SnozPrciz2BPVKZ2TXJ5RxmJxUZwitdCZCLmsgu7nyl2s6T/AGQGm7Nm4iebM5udKctcqTXT5HOIOBhmLnSzn7znXMKkr6LyVbkvJfCMzE4lvwAkYcMj5U3DnDvevZe4yhio2EwzokCEXPnmB8gWQQR8dw6v1MCsy6ME10MCfDaZ4ZKQhypvuvkVVhDHGKw3B578Yrc0Dkn209UpzXhrY8eKGsDosaM46Zuc41JcT6yuoyfk+FgWEkh+IeBvsSVJd6zUP1qA3tZ5tSX2JfZ1p+tiAtNA2BLJYDYE1lZA1lJhL7EpyBANPUl9iXpoTUEA1BVr6PieW7rVlZVrx28Qnv3c1UB52pfZ1pfZ1pqCwDBisLAxkPeorTIGbXNo9h5WnrWSHChQIcOFCYGQ2DNY1uhe7Cn7prKADlN1qDJ+D4UcZvfwtwKZgfpiBvfLbvsS9AgF6dJS1AlrJapQC1SlanlBA5xJNZ5gl9iA40bkcf47hKU+TjJxRx/juE+5GXZakU7T63aU+pbTd8zjeKGOH87hPNxk4oY/TjcJ5uMuytOaVKafW7RqW03XxONG5DHn+dwn3Iy6rAwH4XB4LCuc17sPAhwXvYCGuLBIloNVsXoE1Lxq3NSskpkq2sKNrJypLJsWoEtUpa6SJqbaFHJwlOp6Fq4jAYPFRYMWNDmYRrKgiAWa8aQLravsSdgEA5AP2QhsiCAQ4EOBEwQdBChxawTJ952LwIrCazG2wWkpxi8mzeNOUlmkYcLgMJhHRnwmSdFJJLjMtboY08i2r3t1peujRrRbmgM9CGiWQUmSgLQWmeQJeuhBUDkkEWQE5ylqC6dtyBANQSymyjWgCrX1fE5M93WrK+zrVbE+UiAd86fSgPOofslkoE2rAGspfZ1rSixIgixAHuABoJ0stmCXOhsJJJrMnagMl6DnSy1I8SI2I4Nc4CTZAGQssQiRReI7pQFhapTWeZV++RjUxH6qpvsY/Tf0lAWF9ibFX77G0RH9JUiJFEu3fcaUBv2TbdNZutPHZSwOTmwH4t0UNjOe2HvUPfCSwAmdRyhbRi5PKPOaTnGnFym8kjcul6DnVLxoyBoiYv0b/wB040ZA7/F+jf8AuvbRq26+BF0+27xcS6S11S8Z8geExfo3/utjB5ayXlDEDD4d0cxcx8QCJBzG5rJTrnHlWrt6sVm4s2je285KMZpt/csr35kvawulTs0pqC8SWDqSgSw/VU1n9kBrxic4T0AELFfZ1rLGq/VILGeRVNb52XFHZBGxBJLSOQkc11koFig0a7yv7BZdZVjR+RFbWWVRjWbpeujkS9TbQl5hep4loLDYENKC6WAlyBLVWQLVN0mEvU8ynoQEJfYl9nWmoIBqCrXyD4nlu56qysq1/wAeIT37utAedqX2BL7FpxY0YRHta8gBxFhZYBsuhwnEksBJueVegGtAa0ADQAtLf41g89A9yb/GF3noHuQG4YcIzc5oJ0k3UbzBvvbdQqtQRo1y87JD3KN/jnuhlzIDb3qCT8m2XOp3qDbe29C09/jWzz0D3Jv8YfTPQEBubzAHc2+tN5g0OY2fPRam/Rrl56B7lAjRyR25vyBAb99i5ndhLg+SpeHxfsQ102r1rmN2Ehh8kj/78X7EJS7Lp4/7qKzFvo6n49UcgihF1B88JV5uWrlZo/8AyYr/AAVEr3ct87tl4niv8FGuuhl4E7DvqqfijutQSgulAms/suVPpA1lL3t1pfZ1ogNeN8enehYrLLGo/wD4hY5aTdVNX52XFL5EZ4FGuJvnf2WW9+ZajXvE5GQvKl1O+xe+PQFIp3EYxSZGqW0pzckbVTZDTatXfYopnGZtZehFiNqTPaB/ZeiuYHnosy8EgJ6gl6nmWth8XDjya4Zj5UaTMHYVs32KTGSks0RpRcXkwn6umoJI8q2NRqCWRNaAa1WvrEicme7rVlfYq2JV8SXfun0oDzenSsboMEkktmSZmpqsllqRI8Vj3tBEg4gTAWAZuDwBUt9bvenB4Fy3Z2x961+ER7kjV2oUcJjnSJeSEBs7xBP0TLyne9N4gd56ytfhEfQR90JwiMNI+6EBscHgD6Prd704PAFS2vlH3rX4RG0uE/JFE4RHOkS8kIDYGHgn6J6Xe9N4gaG21la/CY2hw19qE4RGoJip70IDdtILmN2H8PkrXHxfsQl09pzXMbsJ8HyVPw+L9iGpdl08f91FZi30dT8eqOPREXUHzwK93LUyu37Hiv8ABUSvdy3zu37Hiv8ABRrroZeBOw/6qn4o7rWUvs60vXR1rxFc5rHZtDQT5JrlJPkps+lRi5NJEuiMBlOtjKslIc0iYM9i05yC9NcWnO06eSXIoUbp57eYnStVydnOe43x5m+aFivXoXuI4PcHaJCmteLqNVac20SaSagkybpaguk5UF1Fqm60PQm1SmvoCazzBRdASCZggkSrPWrnCxjGhAn47e1ft5VTE6At7Jxk6M3la13POSkW82p5dpGuYpwz7CyTpQKZhWZVkJfYkp7EnOgQC9Aq2JIPiD6zutWVBRVr6PiE9+7rQHm0ysToEJ5L3Z0yZ3ost6nmC1YmIiiI9oDc1pIqDMrAMhw0E9995ODQfrfeWHhUWwDOg+9OFRRoZ0H3oDNwaCO++8nBoNznT8pYeExbyZPYfenCYp0M6D70Bm4NBOh33kOGg6M6Wntlh4VFsAyWw+9OFRRQBnQfegM3BoIsHfe/JODQRXtvvLDwqKKkM6D70GJikijOg+9Abl6nmXMbsPkMlf18X7ENdPemhc5urg4iPAyW2BAjRXMjYkuEGG+IWgshgF2YCpdm8q8W/wDbCtxRN2k0vt6o4tFs8Ayp4hjfRo3+qdj8qeIY30aP/qul+JHtOA+DU3XwNZXu5aRyu37Hiv8ABVfAMqeIY70aP/qrnc3hcbByq18XC4mEzguJaXxYMRjATmSGc4ATUe5nF0ZJPqJ2H0qiuqbcXzrqO12KHNBaWnT1qaBNZXLtJ7GfRE2nmjULS0nOv+rKNttC2nMEQVpyFarg4EtNx+qKrq0nTf2LWjWVRfcXQmUhpQmUpXS1TdeJ7gUqbpt5lGs8wS6Am6E6AhOgJZALKxydDIEaKfpEMH/GZK0oEB8d+a2gEi92ho96umMZDY1jRJrRIe8qXbU23y2Q7qokuQer7E5giS1lWBXDUOdES1SgCrXj4SIT37pDnVlpn0KtfV8Tkz3daA832LC7Dsc5zpumTPRILNqSywDBwWGPpP8AUnBYYqXO9Sz7UFdiA1+Cwz9J8uZTwWHYOdtos96DnRAYOCwtDn+pOCwhXOf6lntdKm/MgMAwkM3c/wBScFhn6T5DTRZ72sLoTYBANQS1eX1pQJW5QCtz+yTJvbrS9dHWmr9BAK6Ck5JQJrN0A1lL1KXro0JdAKry9gcJSro1L1agulqm+lYkk1kzKbi80ajmlhIddedZ5lljTz5nkEgsV1UTjyZNIuYS5UU2Tf8AumoJqCig2rQ3JsJaVkgQIkd+a2gFXu0NCx61v5NqcRySh/5L1pRUppM8qsnCDaN6FChwmNYwSA6XHlK9ohVsklsRUNt7WEryJapSYWTAoJoK1KSql9iAX2LQjtLIjqUcc4c6315exjxJwmNHLPUgK2ybbrbOEEyREPOAZKOCT7p+H81gGrU7E2c62uCGwifh/NOCSoIn4fzQGqlltcEleJ+H804JOpifh/NAat6nmS9raVtcEJ7pTyfzTgmgRPw/mgNWegBLBbXBJd0/Df1pwTSYn4fzQGrrP7JfYtrgk+6U8n804IbCJ+H80Bqz0JZbXBJd0/D+acE0mJ+H80Bq6yl6m2hbXBJ90p5P5ocIT3T8P5oDVulpSutrgkpARK+T+aDCSmd8/D+aA1aCpuVQ5U3QnJmMdheBtihsKDEDzGLPlG50s0NNtq6jgnK/Z2v5r55usbm5ZjNnOWHwgnshyU2ypRq1eTPmKnFripb2/LpPJ5r9my/dY57p9j2ASAlwhx/wXnjU7xBnn3f6LmkVo8LtW83Dzfuc2sexCKyVTyXsdKN1RH8gzz7v9E40u8QZ593+i5pFjVVpueb9zP8AyDEO88l7HS8aneIM8+7/AEWeBuyfAz5ZOYc/N/mHCQE/qFcnMUqFKzHDLWLzjHzfuayx2/kspVPJex9KyDuhiZZjYyE7CNgDDwoMQFsUxC7Pc5sjNo5F0FqrhNwv8Vlj7Phfbeu7vdVF3CNOq4xWw6nDK069tGpUeb2jX0KVCU/RUYshfYmoKZqEATWp2qLoBdaEXKTIUWJC3pxzHFpIcB6pLf1KtjZOixYsWIIjAHvLgCHTAPLJAOyrPAO++PcnZVgrvDvvj3LH2KjDu0PocnYqPpiw9VHLAMgyqw1MB332+5OyzD3B8vLb7li7FxzaNDlscp7Fx/Cw+hyAydlWWEB332+5OyzB3B/32+5Y+xUYd2h9Dk7FRrmLD6HIDJ2VZcwHffb7k7KsPcHy8sV9Sx9iox7rDlschyXH0RYfQ5AZOyzPAO++33J2WYO4P++33LH2LjDu0PocnYqPcxoc9jkBk7KwxMmA6cu/b7lYMdvjGPlIPa1wG0TVUclRzP4WHYyo71q1YC1kNlO1a1pItQSosg0YmU2MiRYe8uOY9zCc8CeaZTst2FEESHCiAS3xjXAG4mJ1VfFybFfFjPEWGM973gEOpnGa34DDCgwYbiC5jGtJE5EgSpNAZLJep5kvU8yIAvmm6/58xH9DC+wvpZ5Avmm6757xH9DC+wrDDum/BRY79L+V+zn1KKF0RwwXplXs8pvWvKmyA6bNqe15formF73yL37/ALzvevC8qcHAkVqyq5ZLI7DcL/FZX+z4X23ru+pcJuF/isr/AGfC+29d3PQP2XPX3TyO3wb6SP59RqF07ZLJPaoZbiybVKICLopRAQllKICL1PMl9ilEBCWUogI1lL7OtSiAhLKUQEayl9ilEBCWoLqUQEWqUvU8wUogITUFKICLL5puu+e8T/QwvsL6Yvmu6757xP8AQwvsKxw7pvwUOPfS/lfs51SvSLoThszyi9KEGZChe0TIZnW7hf4rK/2fC+29d3QLhdw38Vlf7Phf+yIu7XNX3Ts+gYN9HH8+pGs3UopUItz/2Q==;" vertex="1" parent="1">
          <mxGeometry x="560" y="360" width="80" height="80" as="geometry" />
        </mxCell>
        <mxCell id="FzvfpjTC2ta0bPmBSBWZ-10" value="" style="endArrow=classic;html=1;rounded=0;exitX=0.25;exitY=1;exitDx=0;exitDy=0;entryX=0.25;entryY=0;entryDx=0;entryDy=0;" edge="1" parent="1" source="FzvfpjTC2ta0bPmBSBWZ-5" target="FzvfpjTC2ta0bPmBSBWZ-9">
          <mxGeometry width="50" height="50" relative="1" as="geometry">
            <mxPoint x="300" y="120" as="sourcePoint" />
            <mxPoint x="580" y="119" as="targetPoint" />
          </mxGeometry>
        </mxCell>
        <mxCell id="FzvfpjTC2ta0bPmBSBWZ-14" value="Provides Products to be used in the Mobile Application&#39;s Catalogue" style="text;html=1;strokeColor=none;fillColor=none;align=center;verticalAlign=middle;whiteSpace=wrap;rounded=0;" vertex="1" parent="1">
          <mxGeometry x="470" y="230" width="110" height="30" as="geometry" />
        </mxCell>
        <mxCell id="FzvfpjTC2ta0bPmBSBWZ-19" value="Updates the Inventory with the purchases made from the Mobile Application" style="text;html=1;strokeColor=none;fillColor=none;align=center;verticalAlign=middle;whiteSpace=wrap;rounded=0;" vertex="1" parent="1">
          <mxGeometry x="620" y="230" width="110" height="30" as="geometry" />
        </mxCell>
        <mxCell id="FzvfpjTC2ta0bPmBSBWZ-20" value="" style="shape=image;verticalLabelPosition=bottom;labelBackgroundColor=default;verticalAlign=top;aspect=fixed;imageAspect=0;image=data:image/jpeg,/9j/4AAQSkZJRgABAQAAAQABAAD/2wBDAAsJCQcJCQcJCQkJCwkJCQkJCQsJCwsMCwsLDA0QDBEODQ4MEhkSJRodJR0ZHxwpKRYlNzU2GioyPi0pMBk7IRP/2wBDAQcICAsJCxULCxUsHRkdLCwsLCwsLCwsLCwsLCwsLCwsLCwsLCwsLCwsLCwsLCwsLCwsLCwsLCwsLCwsLCwsLCz/wAARCADqAOQDASIAAhEBAxEB/8QAHAAAAQUBAQEAAAAAAAAAAAAABAADBQYHAQII/8QARxAAAgEDAgMFBAYHBgUDBQAAAQIDAAQRBSESMUEGE1FhcSKBkaEUMkJSscEVI2JygtHwByQzQ1PxNESSouGTs9Ilc4Ojsv/EABwBAAIDAQEBAQAAAAAAAAAAAAAFAwQGAgEHCP/EADIRAAEDAgQDBgUFAQEAAAAAAAEAAgMEEQUSITETQVEiMmFxkbEGFIGhwSMz0eHw8VL/2gAMAwEAAhEDEQA/ANa86XP0pc/SvE00UKGSVwiA4yeZPgAN81y5waMzjovQL6Be6X9ZqGl1SaUlbde7T7zAFz+QoWaSTgZ5HdjjmzE7nbrSGfHYYzaMZvsP99FabSuPe0UxdX0due7UB5iM8OfZQeLEfhQJurmX60hwei+yPlUZGcepouNgMf1mkFVic9S7ezeg/wBqrYp2xjqUYg25nPrzr2y8Izk59aZR8bmvRkyN6oXXBBuuGe5TcSv5AnI+dek1N1IEyAr95Nm9SDtQztmhXOfSrMVfUQm7Hn3C7ELH7hWSKaGdeOJwy8jjmD4Ec6c51UY7ma2kEkLYI2I+yw+6wqzWl1FdwLLFtnZ1PNHHNTWtw7E21gyO0cP9oqc9OYtRsiPIV2uUuVOFVS5UuXOly3NLzP8AtQhLzNeJJI4keSV1SNBlmdgqgeZNemZVBZmVVHMsQAPUms51HXZNZmlKEpZQzOlvHv7YXYSyDxPTwHvJrVNQIG3O6tUtM6ofYaDmrHedpkyyWEQfBx304IU/upsfiR6VCXOo6pdBhNdSlG2KIQiY8OFMCo9GFP8AEMYrOy1UsveK0kNJDF3Rr1QrqeVDOCPH40c+KGcc6rqyQmotR1Oz/wCHu7mEc8JIwQ/w/V+VSdr2z1y3I7/uLtMjIkURSY8niAHxU1EOKDkjU56HyqzHM9ndKrSQRyd5oK0zS+1WjakyRM5tblthDckBWbwjlHsn5Hyqf3rCZO8T6w4k8atPZ3tfPYtHaalI82nnCJM2WmtPDPUp4jmOnLFNYK6/Zk9UnqMPsM0XotN5+lKuI6SIjxsrI6q6OhBVlYZDKRtg9K75U1SlLalXdqVCEzcTxW8Mk0pxGgyccyeiqPE8hVXmu5r2bvJNgMiNB9WNfAefiad167Mt0lmh/V24DSY5GVhn5D8TQsA5CsRjNe6aUwMPZbv4n+k4pYAxnEO5R0K9BXbxGFuSo3VlY+gp2AYwBRUiKF33yN/OkoFwgvs5QKNjFEo+Nyd659Ckklk7jHBH9fiOMMdwi/nTbxXMJzLGygdSDj48qm+TnDA/KbFWC5juaLWTqTSMmeu3QUEJM9dq73ufSq5JGhXnDRDSZ67Uw755Gm2kzsDTLydBXJcpGsSkboKM0a9+j3TxMSY513A3w6bhsemajHce+lZN/fbPxMuPirCuoJ3wSiRh1ClfEHsIKvysrKGUghhkEda7y3NRNtcmCQI5/VSHG/JGPIj86lh4mvolDWNq48w0I3CzkkZYbJeZ/wBqYu7qK0geeTcLgIoOC7nkop+qnr1/x6iloD+rtEVnHjLIA3yGPiasTy8JhdzXdPFxpA3koXWJry+dpLlyw34Ixnuox4IvL31V7GbupZYWOOJiBnoynGPfVov5ldTjHKqfcoxnlMSs23G/Apbh6ZOKzz7v1O60rMsejdAp9ZOlOiTzqtJfXMe3e7Do+D+O9ELqcwxkRN7iPwNVi0qwHBTpfzppjUV+lJf9OL4t/Ol+k2Jy0Skfssfzoyle5gjmod6bW9t5NiSh8Hxj416Y59K9tZcphxmgJlMZ40+ryIo96GkAIIO4OxqRpsuXC6uXYbtAUkTRbmTMU3E2nM5/w5N2aDfodyvmCOoxo1fPcUksEw7tyksTrLC45pIhDKw+RrdtH1BNU0zTr9QAbmBXkUfZlHsyL7iCKeUUpcMh5eyz9dCGkSDnv5o7FKljxpUwS1Z/3rTzzzN9aaV5D/ExNSEG2KjINsCpODbFfKQ4uJcea1EosLBSkGBinLmXu4nfGWVcKP2jsBTETYGTSkPeT2cZ5GXvGHlGOKr1NHxZGs6pcRrdH2sPcxIp+t9Zz4udyaKC8Q35eB5Gml3wenSnlI93419AjAAsFQkJJuhJ9PsZ8loVBPNo/Yb4rURc6RcICbWbjA+xNgH0Djb5VYXbOw5Uw5A2H+1V6ilhlHbapYpXt2KpzyPG5ilVo5V5q+3vFNtJ571Zb61truIxSj2v8uQfXRvEH8RVQlWa3nltZv8AEjOxHJl5gjyrHYhh3y/bj2TqneJNOacd6J0lTJfwseUSSynywvAPxqNaVAcA8R+Q99JLu+h7wwStEXAVjGAG4Qc44iM1zSYPU1Fn2sPH/XXFRVxRtLAblXCZWOTwtg8tjUvYStNbRswPGmY3zzJXkfwrLppryQkvcXDfvSyHPzoQz3iZ7ue4XfPsTSL+BrT4fhklHIXl9wRtZJZZhI21ls259KyvVrthretBjut7Km/guFHyqNGta7b4MepaggHjPI6/ByR8qjrm8uLu4muppeO4mYNK2FXiYALnhUAdPCmVTE6Vtmr2lmbE8lyme9mupIbaEcUszrGgHietX7StGstOt+7Eccs0gzPI6hi5PMDPSqJ2SvNKt9Rll1C5SGXuxHZmYERcTH2i0nIHkBn41p6YwDkHiAIIIIIPIgjbFVYICzVw1VqeoEmjDog30XRpt5LKLJ+4CvyBxTLdmNAOSbXf1GPmKmF23NOHBGTVzgsO4VPjSA6EqvHsx2f62g+I/lQtx2T0CYMBAYz0ZCM/hn51ZW39OnnTLb+lQuhj6KZk0n/pZpq3ZG7tFea0bvoRuQfrD3/z+NVtLiWBjG4YBThkbmp8s1tDkHI6cj6eFUvtN2ejmR7uyQCVBllHUeH8vD0Oy+WADVqZQ1BOjlVS6soZTkEbUyxoW3kkUleCQoWKkhHIVxtuQMetPMwqkW2Kvh2YIWc8MsbeOM+41qH9nV0ZNL1G1Ykm0vyyDwS4jWTA94b41ll0f8P1P5Vov9mhPH2jH2cac38R78VfozaRv1S6tF4neFlotKlvSp4kCzyHKnB5gkH1G1SMJxjNM6jB9G1G9THstJ3yeHDJ7e3zFeojyNfK5IzFI6M8jZagniNDhzUijbZJr1CeK8iPRYpD76FV69RSYuovApIvyzTHDXAVDbqq5mhU4G89q9950HLrQIlztnbrXe+6A/8AitqJFSMRKMaToP8AamHkwKYM2Ns0y8yqGZmCqAWZmOAqgZJJ8BXDpF02JOO56ZJ8AKpmvahby6oLOMZmtLZTcSg7FpCGES4+6Dkn9rHShtZ1W81FniheSKxU4VFJVpsfblI+Q6etVRH+iXqsdlIAb91ts1KyC+r/AEUMlRbssVnRxsTT3GCN6j0kzg526edPCTPWripJ18HNDOM5pwvmmmI3oQh3HOg5Yo25jB8RsaMeh3oQo2VZoskHjTqDzxU52d7XXujukTcdxp2R3lq7e3CCd3tmbkfLkfLmIx6jrmE7yxbONyB1rwi69BsvoCyvrS/toL20mWW3mXijdduWxVgdww5EdKJ48+n41i3Y7tM2lXghuHxpt5IqXSknFvMfZS4Xy6P5fu1r5kztnYdR19KhccpU7RnTzPn0ph35ge+vLSdM0yz9BUDnqw1i679Bz/ChpHXhcEZHA5YHkwwcg1x5MetDPJjOd8gg++qj3q7GxV+91RLJ+5REOMF+aqM78KquBUNrkMMlvZapAgRbk8EqgYBYgsrYHU4IPuqYk0yG71K5e5iL26gSKrZ7t2fGAfHG+RTHajgj023iwAXuo+BQAAFjRuQ94peQmN+So054miXz/MCtP/s1hItNduSPZlvIIFPj3MXEf/7rLyQZsn6sa5J8Mb1tvY2wax7PaWrrwy3KvfTA8+K5bvFB9F4R7qY0be2PAJbXPtGR1KsOT0pUqVOEjVf7RWhZYL1R/hfqZsfcY5Un0OR76g42+FXiaJJ4pYXHsSo0bejDGaoRDxSSRPs0TvG3qp4TWIx6m4UwmGzvcJ5QSZ2Fh5IwPmvPeYmtiDycj4imOPbamZZCHt8dJMn4UmppOHK1xV4MuVNd8OVLvsdajBPsMH+vOkZ8dTWs4y84CkWnA67mobXL0x20cCthrqQh8H/KjwxHvOKdM/iareu3LfTLME7LbZHhkyNn8Knpn8SUBV6thjhLgnSsfdZ2zVf1CIu6GNSzk8IVQSzZ3wAN6ON2ODc7eVXnsz2fihii1C9iV7qZQ8auMiJDuBg9f69HTnZUhYzMsrju7m39lZCuPsSAED+F6KXVroDdYWx5MD8jW0zaLo10T31jbsepC4/ChH7IdmX/AORTfyT81rkPPRdFg6rJP0xL1hi9zN+dc/S56wL7pD/KtXbsb2WH/IoT6J/8aYm7GdlnUr9CUE8ivCDnywKDIRyXojB5rMV1K2fZg8Z/a3X4j+VOl1YcQYEHkQcg++rDq39n5jSSbTJ2JAJ7mXLD0B3b5n0qiyC+06d4ZkaN1+tG/wBVh4g8seYr1sjXaLl0bm7qSfrQ711J0mXiX0YHmD4GvDmpFGo2XEFwD/lyjBHTfY1rvZDVn1DRoY5XLXGnt9CmYnJZFAaJj5lcA/umsj1AZiVvuOPgdqtnYO9ZLy8g4vZurFJsftwOBke5jUE47BPRWKc/qAdVp7S9AaYaXHWhmmA9aZabFKHSp02FPvLj30NJJjO+9MvNjrTDSE86qvlVxkSKjuoIz+vlSNdyC5wPd51Se0WrJqF9wxE/RrRHSPP2mz7TVZ2fPPltms4lYNJLg4VnkbPQLxE5NERz3C8lGSx6qV7PaXJrOqWVjglLiXvboj7NpEQ0p9/1R5sK3xQFAVQAqgKABgADYAVTuwmgtpmnm/uYyt7qKRsFYYaC0G8cZ82+s3qB9mrj5D/an1NHkbc7lZ6rlzvyjYJZApUthSq0qaX4VRtYAj1TUFHWRX97xq5/Grz5e6s/1eUTalqDry74oCOojAj/ACrNfERHy7Rzv+D/AEmmGAmQ+X5CY4+lJIpriaNI14iOJiScKByyTTGTsOZqb0e1c3Mqke39AE6DxzPwn4429KzOH0hqpMp2TOqqW02UHdxsm20mYRF0lUzc+DGEbHTPPPnUU7ujFJVZJBzRxg+6rkic8jfl6UHd2cUo4Z4ldRuvEOXmDzrTmiDWAR6WXkVXY2fqqsX8agO0SOYrW7UZELNDLjmEc5U+mcj31bJtLtwSY3mQdF4gw/7hn50FNYQskkcju8bqVdSFwynoagiL4JA/orcwjqIizqq12Wtv0trdlbsOKCAPeXPh3cWMKfUkCtmXwGwHy9KpXYzQ49Mk1m6WTvFuZIbe3J+ukMYLsrHlnJ+VXRTyArQCQSHMNlm+GYxlduiF6AU5sB50wDjHia98WBvzqUFQOautgc+dMNtk+Xwr2zDmTvTLNzJrhxUjAvDeJ6VWe0fZ601i3chAlwoLRuq+1xeI8/EdfXerE759PxoZ3ztVV7rahW2NvoVg0i3On3c1vKpEsTFJUUFsr0YYGcHmDiii6sAQcgjI9/iK03U7q2spZpI4UEkrlSVAUtwbcTsBk+VQGqR2mr6ZeXkUSpeWA4yy4y8ajiZGPXbcZ5Y866ZXAuDSFzJh5DC9p+iot4R9Hmz0Cn/uFSvY6Qpqdi3jbXi+4rULeviCT9oqvzzU32RjxeRv/pWMrH1kZVH51aqTlicfBVKUZpmAdVoZnptpTQxfrXkv4msoZCVsREAnjITzNNl800WzSjWa4mht4AGlmkSKPiOEDOcAsfCuLkmwUmUNFyvFybySG5Sytrm5ue4crFaxPLJhvY4iqDON+deOxvY2+ub36frVlPb2dnIpit7uJo5LqdcMCyOM92uxPiduQNaRpGk2+lW5RT3lxLhrqcjDSMOQUdFHQfmakvIVoqSi4bbv3WYrMQ4riI9kvIUuWw50uWw50uXrTNKUsClXaVCFH6tfpp9o8gI7+TMduu2S5H1seC8z/wCaoHMjmWY+rMT86sGp2N7JMk2oXMZlkyEhtwxSKIdAz/8Axrltb28G8aDjOxc7ufeayFfBPXzdoZWja+/orYxKnoGFg7Tzvbb1QtjpjkrLcDhHNY/tH96pjThw65OvQaNCQPD+9Scq6hHWvNkcdoiD9vQgR/Bdn+dNKOnZT5WsSB9XJVVDZJDz9FKXoht4572Q8EUMbyz7ZwqDJYAdaqsvatpiUtbKMQ8g12Szt58CEKPiat2oWi39le2bHhFzC8Qbf2WI9ljjwOKyY97bySwTKUlhdopVPNXU4Iq5U3YezzW6wWngqQ7i6lvLwU+dbty+Ly1xGT7T2jsrKP3JCQfiKlobfSbqJJ7dzPC2cNxtgEc1ZRjcdQaoNxOMNuBgZJJ2Aq89i9InjsJ7q7jZFvZknt4myGMKoFWRxz9rcgeGPGqrI+IbWTHEoYqaPiNNvDqpa2WOOMJGqqoLYCgAfKiQ4GMczSv8RSRcIwGjwMbD2TihRLjfnU37Zy9FnR+oM/VGiQD1rvedSd6C7zG55/hS73xrviLnhIppOtNM+eu340wZc79KZaXPpUbpFI2JOvJnPhQzyV4eXOQKGkl6Cqr5FbjjUZq1mb25skAbu5GKSlM5VQeMknptyr1eQWmn6PqiwxrHClldeyvVpEKZJO5JzRQnRGy7BVPMsQB7ydqqvbXXbZbeDSrSVZJLmSKS5ZDkCJWyFyPE/wBeMULeI8AKad/DYSVn95utvCDu77+WPZH41euyWk3ctne38Xd8LzC1jDkqWWAZYqcY5nHuqjxRzXd+qQIZJeNLa2jUZMk8jcCqAPEmt1s7bQ9D07T9Mkv4VmtIFjlCZlZpj7UjssYJBLEmnNU0PjydUkoswlDmi5HhdV5rTUF+tbv/AAsjD5GvHcXZO8RUeLsoHyNWDvrG4fgivLcsThVlLQkny70AfOuSadeEkcMYHm4/Ks+6ltstL8y5ujxYqA+jt9ttvBP5mn7YFZ4O6ypR1cFM5Xh34s1Jfox/8yVQOvdjPzbb5UfFp0NrbXF7cKYbO2hkuJif8WVI1LYGfHl79qI6Z7nWaFxLVMa27yoe77V61ZXgiikjmit0VJY50B7yQ+2cuuHyMgc6s2j9p9J1YpCCba9YH+7zkZcjn3T8m+R8qzGRpJC8kgxJK7yyAdGkJcj3Zx7qFfKkEEhgQQQSCCNwQRvmtPG0taAVlJHB7y4Cy3Wl61RuzHbAzPDpuryATMVjtbt8ASnkI5jy4vA9eu+7XnzP+1dqNLBPlSpb9PnSoQqrf3Hf3lw4OVV+6T91Ntvfk14RsbmglbqdyafRvGkhfmJJWVdJncXHmj0bqabt3C9o9KP+vpWoQ/8ApyxS02r+dNmQR6v2YnJAQXF/buScDEtsWyc9PZqRjrOHmFNE6z2+YVrmnht4pZ5pFjhiUvI77AKKy3XLg6te3F7bwrGCFRUAAeRE2Duc44j/ACHTJP7Q6/8ApacWtox/R8D5BG30mQf5h/ZH2R7+uFj4gOH3VLUTZjlGy+t4Nhpp28aTvHl0H8r12esLCTVrFNUQSK5buYicxfSBho+9HUbHA5ZxzrVRtWQzOyMHRiroyujDmrqeIN7q1DSNQj1PT7S8XHHInDMo+xMnsuvx5VJSOFi1UfiGBwc2a+m3l/38JjW5reGG0MkgWSW57mEdXZkZiB7h/WaiRL1JoHWbr6fq8xU5t9JVrSLwa6fDTOP3dl9xptJ+IbnBHj+NUqmW8hISHC6tk730/MbePX7qT77qTXO9z6VH9948q4Z89arcZPuAjzNnrtTLTcxmg2n86aabpUbplI2FFPN4UM0vnTLSU2XqB0l1ZbFZOl6y3tQ5Gv6mV2IkhxjoRElaU0iru2fRQSx8gBuTVJ0rs5q3ajtNJFcw3NlDPJNf3MlxE8TpaLIF/ViQDLHIUfHpTHDAXSOdysleLENja3mSpfsP2avJtO1fXu7P91triPTc8QaS6I4ZpkIP+WuVX9on7tHQOFAPvrWrS0tbG2trO0iWG2tokhgiQbKiDA8/Xx99Zf2ggs7LU7xLKQPbcfEwUezBM27wg8iAeXhy+zTCrbs5WPh6exfDbfVCXE3EDvU92TvNTvpruxLmWG3gjljMm7RcT8HDxn7PPA8tqrdjZ3mr3cFna92rzMR3kxIjQKOJicbk45Ac/mNW0bR7LRbRbW2BZ2Ie4ncDvJ5cYLNjp0A6fMwQRF5vyV/GauOKPhkXcdvDxT0FhFGVeTEkg3GR7CegNV/trfBLWz0uM+3fSd9cAEZFrbkNv19puEe41beVZXqd9+lNS1HUASYWf6JZZzj6LbkqGXP3jxN76ZNY1gs1Yl73PN3FRclByUZJ1oSSu1whXGc5rTOxXaNtShbTL2Tiv7OMNFI59q6tgeEMc/aXYN47HxrNHpWl7c6ZeWeoWxPfWkqyAZwHTk8Z8mGQfWhC3ylTNpdW97a2l3bnihuYY54m8UkUMM/nSoQqIrU8r5oJXz1p1X/rxrOgrGgo1Xz6VH66O8058f5U0T+5sxn8aIV6bvB31neRDm0Dkeq+2Pwrq+ilbIWkOG419FV4Ps+6pBW4VqPh6UVxYHnXS/QMbxIwPbsRf1Tc7DepHs9r82lRaxbgF2uIhJYLjIF6cRAEeBBBP7nnUPO3OjNFteKV7qQezD7MeeshG59w/Hyr0PLNW7rP/ElVHT0Ds27tB59fpupiOH6PBHEWLMoJkY83kY8TufU5od3KniBxii2DSHbl4mvdtbRSXdpE8YkEpm2fcHu4mk+r7qmjoZpmGQDsj/aL5LSxzcVrozlN9ChFuA4BHUkA9GI5gGul+lWeS1gmhaF4kaMDZcYA/dxyPpULcaPKpJtZgR0jnzt5Bx+YpZJTvbq3VfUqeoBaBLv9lHl+leC9epLTUYzhrZifFGRh+NNdxdf6Eg/ewPzqoQ4bhMGlh2K6XrwXx4knkBzr2Lebm5VPIHiP8q6I1TkDk7ZO5NeZTzXuZvJP2kPAwmkwZMewOkYP51I6bKV7SaI2Ti4sdUtPHJUR3AHyNRmoztax2wjAEz+0QRkcCgA5B8SflUdLq8yNp91b/qr6zmmZTwhkCywtEWXJ578iK2VHTEUwkjbp91iqubPVGKR2v21V07S9ovovHp1jJ/e2XFxKh/4dSPqqfvn5ep2p0UaupVgCpGGBGQaBiLMSzMWdmLOzElmZjkkk75NSMZwtKpZDI65X0KhomUceRup5nqvHePayQy2+EkgkSSHhGArIcjYdPGtR0+9hv7O1vIvqzxhivVHGzIfQ5FZRO3OrF2J1Xu7q40mVvZuA1zaZPKVR+sQeo9r+E1NSvyuynml2OUvGh4rd2+yn+1movY6W1vA2LzU2Nlbkc0VxmWX+Fc+8iqEUSJEjQYSNVRR5KMCpHVr8arq93dq3FaWXHp9hj6rcJ/XTDp7R2B8AKjZTTNYZCyHnQb43oqQ0I9CEO1MtvmnnphqEK9dku12m6XpC2Gouwe2uZ1t8An+7viUD3EsPdSrPXxxHalQhXsPTyvQQYgkHIIJBB2II2INOK/KsuCsOHI0P4V7VwMdd9/8AzQYfFew9dhy7DlBsncyzR/6cjIPQHavRYYNOaivDcCTpKik/vL7J/Kg2fapm7L7d8PVPzGHRO5gW9NPZLheaVIk3Z2AXPL1P51abWBY4ool/w4wBnq7cyTUVpVqT+vYYaTIT9mPqff8A1zqwIBgAchTbDKIVDuLJ3R9ysDjVcMTrCWn9Nmg8ep+vsAuqg91P2Xs6z2eH3pdRHwtGpIua7H7Gsdljyzd38f8A1Wb/AMq1Mg7DgOh9lRboR5hWOe3EbcSD2GOTj7JP5UJdHToED3NzFblt1MjAF/MJzPwqZwNgd88wfzrI7hrlb69+lljcrcTLLxEsQwc7AnoOlZGcCPW261+GU5rXFrnWt6q2yXGmMcR39sxOw4+8iB/ikUL868yWF2RxBEKsAVYSIVIPUEGqnNMCuM9Ke0LUtQi1KysYnL293P3TQNuoJVm44/AjH9dKBAedU+mw4xMLo3Xt1U8dMuDku8aDyJY/AYHzoqy0gyuO6XiwcNNL9VP3QOtTsOnFyHuPq8xGp5/vsKb16+/Rek3MkGEmkC2lmFGMTzeypXH3Rlv4aswYdxHAHms5PiWRpyrPdXlhnv7wwEtBC/0WFicl1h9hn8PabiI91REg50ayBFVF+qihQTzwBjehJBW9ijbEwRt2CxUj3SuL36kpuOfumAbdM7kblfOpVXBVSpBBGQQcgjxqFcV6tbloWELn9XIf1Z+456ehpDieHBwM0Q15jr4rZ/D+OOY4UtQbtOx6eHl7eWx0zbHxoSN51mia3do7gvwwuhKshIILAjwGaclbO1O2MeOK4b7QKReSZ3b3/l51n6ePO7wC1WL1fy8BaO87Qfko5ESGKOJNkjQIo8h1NDyNzpxmoZ2pqsAmpDQrnpTrtQ7mhCaY001e2NNGhCbcb+6lSbnSoQtd7R9n5ZHl1HT0LSN7V3boPac9ZYh977w68+f1qesngc8/cR41rp6eNV/WOzNlqLPcwN9FvW3aRFzFMR/qxjG/mCD60sqaPMc8e/RJazDs5MkO/RUYP8a9h65f6fqmlMfp1uyR5wtxFmS3b+MDb3gUMsikZDAjyOaUuBYbOCQOa5hyuFiu368cPH1iPF7jsaAtYfpEg4v8NN38/AUeWDKynkylT6EYrkKrEixJ7z1Zjtk101+lgtBRY2+loJaOPvPOh6AizvYD6lS9sBw8WMZ2GOQUbACjkPSgUOAAOQAHwohG5V9FpoBBC2Mch/1cxNyNDUch5AV5mYJfdlnz9XWkQ/8A5oJY6bR8bdaY1CXuotPnzvbatpdwT4KJwhPzqUtuCFPfRaBy9aoPbW0tYrm3vIpB9KnTFzABlmRBhZ9uX3T44/ZNWnW9ZttHt+NuF7qXiW1hz9YjmzY34R1+HWs8ae4vJ5bm5cyTStxOzfIAcsDkBWQqZG2yc1ucCpJTJ8xezR9/6UOZJJSEjUszEBQCBzOOZ2xWkdmezCaSpvbwpLqUqcOV9qO1jbnHETzJ+03Xly50t4okVgqIobJbAxnPjV/7Man+kNOWORs3FkRbzZ+sygZjc+o2PmDUNLlza7pnjpmbTjIezz/H0U5z9Pxqg9p776bqotkObfSUKNjk15MoL/8ASuB/EauGr6lHpen3d6wDNEnDAn+rO54I4xv1JGazdUkjjxKxeeRnmuHPN5pCXdifU1pKCK7jIeS+dVUmmQIaXrQUnWjZevjQUnWnKWlCv1oaVQwI69PI0S/XNDtQUIi2Y3SopPtHaYjoq7E+p6VKggAAABQAAByAHSoWwl7u4liJ2lXjH7y/0akuOszNAIHlrdjqtE6skrAHyG5At6fynHeh3bwpM9Ms1RLheXamGPOvTNTTGhC8E02eteia8E450IXDzpVMaX2V7R61ai+soIRatI8cT3EvdGUJgF4wVOVzkA+R96oQtx5etLzP+1LzP+1doQvJVWDBgCpGCGAII8wagb3sl2fvSzrA1pKd+8sm7rJ8THgx/wDbU/z9KXP0rh7GvFnC6jfEyQWeLqg3HYjVU3stSgmG+Fu4mjb/AK4+IfKoyXQu0dgVmvLWEW0bL3k0M8bgZOB7OQ3PH2a1KoHtW/BpOB/mXUCfDif8qjgoYjMwgcwl0uHQNBe0Wsqar+FPo+MUCr08r4rY2UAKOV8etM6j+s0++Xr3XeL6xssg/CvCvjfNeyQ6uh5OrIR5MCtc2sbrom4soK4v7zU7qS8u5OOWTAwNkRByRB0A/wDPM7lQ4wKjLcEYB+ySp9VOKkEbbyrATtLJXNPIlfZ6J7X08b27EA/ZepmzmntA1X9F6tbyO2LW5ItbrPJUc+zIf3Tj3E0FM/Oo9yWYBRxFiFVfFicAV5EHF4DN17WcPgP43dsbq8dpb76dqcdjGc2uk/rJsfVkvnXZT09hT8W8qhZT0pQR9xCsZYs+7yuSSXkbdmJO9NytzrfRRiNgaF8Xe/O4uKGlPOg5DzoiRqEkOc1Ko0w/Wh2p5zzpljXhQmuLgnt3HRwD6HapPjqJmOwPgwNG96uOY5eNKMQGoKYUh0ITrPTTNXgyr1YfGmHuYF2MiZ6DIyaWK8nWamyaItbDWdQx9A0y/uQcYeOB1i3697IAn/dVl0/+z3tFdFW1G5ttPiz7SRH6Tc4/hxEP+pvShCpzuq44juSFUDcsTyAA3zVy7Odhb3UXivNcjktbAEOlk2Uuboc8TY3RD1HM/s9bxovZLs9ohWa3tzLeAb3l4RLcefASAqj91RU9zoQvMcccUccUUaJHGqxxogCoiKMBVUbADpSr1mlQhKlz9KXP0pc/ShCXP0peVL0pUISqtds24dMtB438fyilqzcqq/baOVtLt3RGZIbxHlYD6ilHQE+WSB76s0v7zfNQVH7blSFfFOq9Aq/nTqvWlskgKNV6cD0CHpwPXJC7DkDIvd3d0o5GTvF9HHFTobavF5jvoXH2kMZ9VORTZfArFYtHkqSeuq+rfDtRxqBo5tJH59iF2V+le7CHika4YeymVi835FvdyFDYaV1jT6znn91RzY1KJwRoqKPZUACmGDUm87vIfkpL8UYja1Gw+LvwPz6J5moaRudemfY70M7881pbLBXTUhoZzzp12odzQi6ac0y1OMaZJ865K9CZnJEUh6gEj1rW9K7H9j7rTNIuZtKjea4sLOeVjNcjikkhV2bAkxzJrJJ/8N8noa3fs+f/AKF2eJ5/orT/AP2EpXX91qv0m5Qadjuxkf1dFsm/+6Hl/wDcY1JW+k6LaYNtpthARjBhtoUbbluq5o3zpetKUwS9aVdrlCEqXOlzpeQoQlsKVd2FKhC5z9KXpXfSuUIS9KXKlS/GhCXKvE0UU8UsMyK8UqNHIjfVZWGCDXv1petCFkuuaRc6LdmNwzWkzMbOfmHXn3bn746+PP0jQ/nWy3dnaX9vLbXcKSwSjDo/yII3BHQg1m+tdktT00yT2AkvbEEnhQcV3Av7aKPaA8QM+XWn1LWteMsmh90onpSw5mbKGEnnXsSedBJKrA4IODg+II6EV7D0ysqN0/cHiiOPrIQ4x5c6EL7U/wAdMogDZO6qdvM9KSYnQuqXxlvWx8lq8BxZtBFMH9LgdTtb66fQImBRGC5H6x8Z/ZXov86e46H7ykXpvHE2NoY3YLNTTPmkdJIbkm5TrPTDvmuM9Ms+a7IUd1x2pljXWammauCvQvLGmyedJ3VBljjrvUroXZrWe0bq0Kta6Zxfrb6VfZYA7i3U44m+Q6noYpHtYLuKmYwvNgm+z2iTdotTjtQGFhbskupzLkARZyIVP3n5Dyyem+5IqRqqoqqiKqoqjCqoGAAB0oLSdJ07RbKKxsYuCFCWZmPFJNIccUsr9WPX4bAYB/rSConMzvAJtFHwxZL1pUqVV1Mlz9KXOlzpeQoQl5Cly2FLlS5etCF2lXMeNKhC76UuVKlQhc5etL1rtKhCXrXOe55V2lQhc5+n40q7SoQoTVezOhauWknt+6uiP+KtSIp8/tEDhb3g1Tr7sJrltxNp91b3yDcRzf3e4x4A7xn4rWmUqsxVUsXdOigkp45NwsQubTWLAn6dpt9bgHHG0LPF/wCpHlPnQi3du2wlTI6Z3Fbz1qO1HTdJnidp7Cylbb2pbeFz8WU0xixFz9C1UZKIN1BWNd8h+2vxFd71fvL8RXNXihivblI440RXYKqKqqBnoAMVGECmgfdUMmqkGmTq6/EUy9zAvORQPWhUAzyHwrUOx2l6PNaRyzadYyS5b25baF3/AOplzUUk2QXspY4sxtdZtFJLdP3dnb3N1IeS20Mkp/8A1g1O2XYztjqBUvbRafC3N76QCTHlDFxP8eGtjWOKIKkSIiDksahVHuG1e6USYg/ZosmLKRg1Kpmk/wBnugWLJNqDPqdypDD6SoS1Vh923UkH+ItVxVVRVCgBVAVVUABQNgABXqlVB8jnm7jdXGtDRZoXPWlXaVcLpc/ClzrtKhC55ClyrtKhC5y9aXLc867SoQue/FKu0qEL/9k=;" vertex="1" parent="1">
          <mxGeometry x="200" y="360" width="77.95" height="80" as="geometry" />
        </mxCell>
        <mxCell id="FzvfpjTC2ta0bPmBSBWZ-22" value="" style="endArrow=classic;html=1;rounded=0;entryX=0;entryY=0.25;entryDx=0;entryDy=0;exitX=1;exitY=0.25;exitDx=0;exitDy=0;" edge="1" parent="1" source="FzvfpjTC2ta0bPmBSBWZ-20" target="FzvfpjTC2ta0bPmBSBWZ-9">
          <mxGeometry width="50" height="50" relative="1" as="geometry">
            <mxPoint x="570" y="151" as="sourcePoint" />
            <mxPoint x="290" y="150" as="targetPoint" />
          </mxGeometry>
        </mxCell>
        <mxCell id="FzvfpjTC2ta0bPmBSBWZ-23" value="Input: Barcode Scans of Products" style="edgeLabel;html=1;align=center;verticalAlign=middle;resizable=0;points=[];" vertex="1" connectable="0" parent="FzvfpjTC2ta0bPmBSBWZ-22">
          <mxGeometry x="-0.2113" y="4" relative="1" as="geometry">
            <mxPoint x="25" y="-3" as="offset" />
          </mxGeometry>
        </mxCell>
        <mxCell id="FzvfpjTC2ta0bPmBSBWZ-24" value="" style="endArrow=classic;html=1;rounded=0;entryX=1;entryY=0.75;entryDx=0;entryDy=0;exitX=-0.08;exitY=0.788;exitDx=0;exitDy=0;exitPerimeter=0;" edge="1" parent="1" source="FzvfpjTC2ta0bPmBSBWZ-9" target="FzvfpjTC2ta0bPmBSBWZ-20">
          <mxGeometry width="50" height="50" relative="1" as="geometry">
            <mxPoint x="580" y="161" as="sourcePoint" />
            <mxPoint x="300" y="160" as="targetPoint" />
          </mxGeometry>
        </mxCell>
        <mxCell id="FzvfpjTC2ta0bPmBSBWZ-25" value="Output: Product Description from Catalogue" style="edgeLabel;html=1;align=center;verticalAlign=middle;resizable=0;points=[];" vertex="1" connectable="0" parent="FzvfpjTC2ta0bPmBSBWZ-24">
          <mxGeometry x="-0.2113" y="4" relative="1" as="geometry">
            <mxPoint x="-23" y="-3" as="offset" />
          </mxGeometry>
        </mxCell>
        <mxCell id="FzvfpjTC2ta0bPmBSBWZ-27" value="ScanGO" style="text;html=1;strokeColor=none;fillColor=none;align=center;verticalAlign=middle;whiteSpace=wrap;rounded=0;" vertex="1" parent="1">
          <mxGeometry x="570" y="40" width="60" height="30" as="geometry" />
        </mxCell>
      </root>
    </mxGraphModel>
  </diagram>
</mxfile>
